<svg width="559" height="295" viewBox="0 0 559 295" fill="none" xmlns="http://www.w3.org/2000/svg">
<path d="M1.81625 216.292V217.637H3.16113H110.022V260.867V262.212H111.367H144.24H145.585V260.867V217.637H174.44H175.785V216.292V187.096V185.751H174.44H145.585V32.6439V31.299H144.24H125.081H123.736H111.589H110.245H101.783H101.043L100.647 31.9246L2.0248 187.714L1.81625 188.043V188.433V216.292ZM40.6116 185.702L110.245 75.4774V185.751H40.6116V185.702Z" fill="url(#paint0_linear_431_5135)" stroke="#071402" stroke-width="2.68977"/>
<path d="M382.867 216.292V217.637H384.212H491.072V260.867V262.212H492.417H525.291H526.636V260.867V217.637H555.491H556.836V216.292V187.096V185.751H555.491H526.636V32.6439V31.299H525.291H506.132H504.787H492.64H491.295H482.834H482.093L481.697 31.9246L383.076 187.714L382.867 188.043V188.433V216.292ZM421.662 185.702L491.295 75.4774V185.751H421.662V185.702Z" fill="url(#paint1_linear_431_5135)" stroke="#071402" stroke-width="2.68977"/>
<path d="M240.394 251.867L240.398 251.87C257.574 261.271 274.583 265.272 291.398 263.788L291.403 263.788C308.245 262.239 324.167 255.427 339.157 243.427L339.159 243.426C354.182 231.363 367.68 214.341 379.678 192.421C391.605 170.63 398.562 150.195 400.483 131.127C402.512 112.034 399.65 94.9835 391.842 80.0271C384.065 64.9989 371.582 52.8136 354.476 43.4508C337.371 34.0885 320.364 30.0892 303.481 31.5318L303.477 31.5321C286.67 33.0147 270.729 39.7738 255.667 51.7329L255.663 51.7363C240.675 63.7348 227.23 80.6589 215.303 102.45C203.34 124.306 196.295 144.817 194.23 163.973C192.165 183.132 195.008 200.218 202.819 215.178C210.631 230.14 223.185 242.362 240.394 251.867ZM300.604 222.811L300.599 222.813C285.326 231.212 270.504 231.395 255.962 223.435C246.209 218.097 239.478 210.71 235.687 201.267C231.923 191.736 231.164 180.299 233.519 166.888C235.979 153.462 241.722 138.463 250.798 121.881C264.46 97.0906 279.046 80.5768 294.487 72.1178C309.874 63.6889 324.714 63.479 339.18 71.3968C348.779 76.6505 355.405 84.0565 359.128 93.632L359.128 93.632L359.133 93.6449C362.967 103.211 363.709 114.678 361.248 128.114L361.246 128.124C358.893 141.522 353.222 156.474 344.181 172.992C330.554 197.888 316.005 214.418 300.604 222.811Z" fill="url(#paint2_linear_431_5135)" stroke="#071402" stroke-width="2.68977"/>
<mask id="mask0_431_5135" style="mask-type:alpha" maskUnits="userSpaceOnUse" x="0" y="29" width="559" height="237">
<path d="M1.81625 216.292V217.637H3.16113H110.022V260.867V262.212H111.367H144.24H145.585V260.867V217.637H174.44H175.785V216.292V187.096V185.751H174.44H145.585V32.6439V31.299H144.24H125.081H123.736H111.589H110.245H101.783H101.043L100.647 31.9246L2.0248 187.714L1.81625 188.043V188.433V216.292ZM40.6116 185.702L110.245 75.4774V185.751H40.6116V185.702Z" fill="#FDC534" stroke="#071402" stroke-width="2.68977"/>
<path d="M382.867 216.292V217.637H384.212H491.072V260.867V262.212H492.417H525.291H526.636V260.867V217.637H555.491H556.836V216.292V187.096V185.751H555.491H526.636V32.6439V31.299H525.291H506.132H504.787H492.64H491.295H482.834H482.093L481.697 31.9246L383.076 187.714L382.867 188.043V188.433V216.292ZM421.662 185.702L491.295 75.4774V185.751H421.662V185.702Z" fill="#FDC534" stroke="#071402" stroke-width="2.68977"/>
<path d="M240.394 251.867L240.398 251.87C257.574 261.271 274.583 265.272 291.398 263.788L291.403 263.788C308.245 262.239 324.167 255.427 339.157 243.427L339.159 243.426C354.182 231.363 367.68 214.341 379.678 192.421C391.605 170.63 398.562 150.195 400.483 131.127C402.512 112.034 399.65 94.9835 391.842 80.0271C384.065 64.9989 371.582 52.8136 354.476 43.4508C337.371 34.0885 320.364 30.0892 303.481 31.5318L303.477 31.5321C286.67 33.0147 270.729 39.7738 255.667 51.7329L255.663 51.7363C240.675 63.7348 227.23 80.6589 215.303 102.45C203.34 124.306 196.295 144.817 194.23 163.973C192.165 183.132 195.008 200.218 202.819 215.178C210.631 230.14 223.185 242.362 240.394 251.867ZM300.604 222.811L300.599 222.813C285.326 231.212 270.504 231.395 255.962 223.435C246.209 218.097 239.478 210.71 235.687 201.267C231.923 191.736 231.164 180.299 233.519 166.888C235.979 153.462 241.722 138.463 250.798 121.881C264.46 97.0906 279.046 80.5768 294.487 72.1178C309.874 63.6889 324.714 63.479 339.18 71.3968C348.779 76.6505 355.405 84.0565 359.128 93.632L359.128 93.632L359.133 93.6449C362.967 103.211 363.709 114.678 361.248 128.114L361.246 128.124C358.893 141.522 353.222 156.474 344.181 172.992C330.554 197.888 316.005 214.418 300.604 222.811Z" fill="#FDC534" stroke="#071402" stroke-width="2.68977"/>
</mask>
<g mask="url(#mask0_431_5135)">
<g filter="url(#filter0_f_431_5135)">
<path d="M-225.122 223.145C-352.895 212.088 -680.21 170.418 -827.896 150.966L-875.504 584.81H1421.18C1447.54 467.326 1478.77 228.981 1392.77 215.466C1285.27 198.573 1048 197.038 925.14 199.341C802.281 201.645 633.351 213.931 561.172 219.306C488.992 224.681 311.616 236.967 198.739 242.342C85.8632 247.717 -65.4062 236.967 -225.122 223.145Z" fill="black" fill-opacity="0.1"/>
</g>
</g>
<defs>
<filter id="filter0_f_431_5135" x="-898.997" y="127.472" width="2371.61" height="480.83" filterUnits="userSpaceOnUse" color-interpolation-filters="sRGB">
<feFlood flood-opacity="0" result="BackgroundImageFix"/>
<feBlend mode="normal" in="SourceGraphic" in2="BackgroundImageFix" result="shape"/>
<feGaussianBlur stdDeviation="11.7467" result="effect1_foregroundBlur_431_5135"/>
</filter>
<linearGradient id="paint0_linear_431_5135" x1="122.023" y1="202.353" x2="122.023" y2="-17.8565" gradientUnits="userSpaceOnUse">
<stop stop-color="#FDC534"/>
<stop offset="1" stop-color="#FDC534" stop-opacity="0"/>
</linearGradient>
<linearGradient id="paint1_linear_431_5135" x1="503.074" y1="202.353" x2="503.074" y2="-17.8565" gradientUnits="userSpaceOnUse">
<stop stop-color="#FDC534"/>
<stop offset="1" stop-color="#FDC534" stop-opacity="0"/>
</linearGradient>
<linearGradient id="paint2_linear_431_5135" x1="295.908" y1="211.993" x2="404.84" y2="12.9745" gradientUnits="userSpaceOnUse">
<stop stop-color="#FDC534"/>
<stop offset="1" stop-color="#FDC534" stop-opacity="0"/>
</linearGradient>
</defs>
</svg>
