<svg width="274" height="279" viewBox="0 0 274 279" fill="none" xmlns="http://www.w3.org/2000/svg">
<path d="M110.646 1.47926C110.646 1.47926 122.889 130.892 121.478 145.569C120.066 160.246 104.895 225.517 107.365 243.863C109.835 262.174 113.539 365.479 112.093 382.943C110.646 400.443 107.365 428.739 107.365 428.739C107.365 428.739 114.774 438.37 121.478 437.912C133.121 437.065 133.121 427.927 133.121 427.927C133.121 427.927 133.191 391.27 131.462 377.968C129.733 364.632 125.076 259.705 127.299 243.863C129.522 228.022 134.849 194.61 136.472 176.405C138.06 158.2 130.58 4.83101 128.993 1.51455C127.37 -1.87248 110.646 1.47926 110.646 1.47926Z" fill="#DFB462"/>
<path opacity="0.5" d="M136.542 176.44C138.13 158.235 130.65 4.86633 129.063 1.54987C127.934 -0.778713 119.466 0.138601 114.421 0.914794C117.49 0.844231 120.136 1.16177 120.701 2.39662C122.324 5.71309 129.804 159.082 128.181 177.287C126.593 195.492 121.266 228.939 119.007 244.745C116.785 260.587 121.442 365.514 123.171 378.85C124.899 392.187 124.829 428.809 124.829 428.809C124.829 428.809 124.829 434.878 118.549 437.594C119.537 437.912 120.525 438.053 121.512 437.982C133.155 437.136 133.155 427.998 133.155 427.998C133.155 427.998 133.226 391.34 131.497 378.039C129.768 364.703 125.111 259.775 127.334 243.934C129.627 228.093 134.955 194.681 136.542 176.44Z" fill="#83652D"/>
<path fill-rule="evenodd" clip-rule="evenodd" d="M134.261 90.9295L118.419 90.3428C118.675 93.5774 118.923 96.7671 119.159 99.8845L134.741 102.111C134.586 98.404 134.426 94.6681 134.261 90.9295Z" fill="#866A34"/>
<path d="M208.31 0.0353347C203.469 0.141179 207.809 25.5439 206.599 30.5538C198.293 33.2 183.352 30.6597 174.462 29.6365C162.734 28.2606 150.672 27.8372 138.944 26.4259C116.197 23.7445 92.1154 24.5207 69.2438 23.0742C58.1001 22.3685 47.0816 21.3101 35.7293 21.8746C25.2116 22.3685 14.2766 26.1789 4.05116 25.0499L0.0444589 28.5428C-0.122488 39.7271 0.920918 50.1704 0.920918 60.8254C6.84752 60.1198 10.8542 62.0603 16.3217 63.9302C12.315 64.6358 7.59878 65.6237 4.25985 67.9876C6.93099 75.6084 6.01279 85.4166 6.30495 93.9547C11.6472 94.9779 17.9495 92.5082 23.3335 92.2965C30.8043 91.979 37.8161 90.9205 45.0783 90.2502C57.2236 89.1212 69.2438 90.6736 81.2639 92.0143C108.643 95.119 136.857 94.237 164.153 92.861C179.136 92.1201 194.537 90.356 209.521 91.3086C208.894 100.905 209.521 120.557 211.315 121.862C212.066 122.392 273.753 65.7295 273.628 58.7791C273.503 49.5 214.445 -0.105791 208.31 0.0353347Z" fill="#D2A54C"/>
<path d="M223.249 13.6188C217.573 13.1602 211.813 12.384 206.012 11.8195C206.053 13.4071 206.137 15.0301 206.262 16.6177C210.853 16.8294 215.027 17.0764 218.282 17.2528C223.75 17.6056 229.176 18.0643 234.601 18.4877C232.765 16.9706 230.928 15.4535 229.176 14.0422C227.214 13.9363 225.252 13.7952 223.249 13.6188Z" fill="#DFB462"/>
<path d="M214.905 9.87904C218.202 10.0554 221.499 10.3377 224.713 10.5847C216.532 4.26928 210.105 -0.0350662 208.31 0.000215288C206.349 0.0354968 205.89 4.26928 205.973 9.59679C209.02 9.63208 212.025 9.70263 214.905 9.87904Z" fill="#DFB462"/>
<path d="M253.216 82.9117C248.833 83.194 244.493 83.6527 239.735 84.3936C224.084 86.828 207.264 86.6516 192.072 89.2624C185.185 90.4267 178.883 91.2029 170.828 91.4499C164.818 91.6263 160.811 91.7674 156.512 93.0375C156.345 93.0728 156.136 93.1434 155.928 93.214C158.724 93.0728 161.479 92.967 164.233 92.8258C179.217 92.0849 194.618 90.3209 209.601 91.2735C209.392 94.1313 209.351 97.8711 209.351 101.787C211.145 101.893 212.815 101.999 214.317 102.07C220.244 102.458 226.129 102.952 232.014 103.41C238.775 97.0596 246.371 89.7564 253.216 82.9117Z" fill="#DFB462"/>
<path d="M6.51312 32.1064C28.9674 32.9179 51.6722 29.3898 73.7926 29.0722C103.926 28.6489 132.015 33.8 161.189 35.2465C183.602 36.3402 214.528 38.1748 230.388 32.7415C235.564 30.9774 239.904 30.3776 248.293 30.3424C244.954 27.3434 241.532 24.3798 238.151 21.4867C234.938 21.2044 231.766 20.8869 228.719 20.6047C220.413 19.7932 214.069 19.1581 206.39 18.8406C206.724 23.9917 207.058 28.6841 206.598 30.554C198.293 33.2002 183.351 30.6599 174.461 29.6367C162.733 28.2607 150.671 27.8374 138.943 26.4261C116.197 23.7447 92.1149 24.5209 69.2433 23.0744C58.0996 22.3687 47.0811 21.3103 35.7288 21.8748C25.2111 22.3687 14.2761 26.1791 4.05065 25.0501L0.0439453 28.543C0.0439453 29.6015 0.0439453 30.6599 0.0439453 31.7183C2.17251 31.8595 4.34282 32.0359 6.51312 32.1064Z" fill="#DFB462"/>
<path d="M237.607 32.4592C234.059 33.0237 231.847 34.8937 228.508 35.7404C220.369 37.7515 207.347 37.8573 196.705 37.6103C181.638 37.2575 166.738 36.6577 151.796 36.058C133.975 35.317 118.949 33.5177 101.837 31.9653C76.2528 29.6014 51.1274 32.177 26.2941 32.9179C18.5311 33.1296 8.97337 33.3413 0 33.2354C0 34.6114 0.0417162 35.9874 0.0834529 37.3634C2.67112 37.3987 5.00839 37.3986 6.59438 37.3986C15.7347 37.3986 24.5411 36.7989 33.598 36.5166C54.5498 35.8463 74.9172 35.1759 96.1194 36.3049C136.604 38.4924 176.838 44.4197 218.324 41.9852C222.206 41.7736 230.47 40.4329 234.142 41.209C240.653 42.6203 230.678 43.5729 226.88 43.7493C213.608 44.3844 199.334 44.208 185.561 44.0669C156.345 43.7493 130.677 42.2675 103.34 39.2686C84.4749 37.187 59.8503 36.5166 39.3576 37.3986C34.1405 37.6103 17.4459 38.4571 0.125205 38.9157C0.166941 40.2564 0.208663 41.5972 0.292136 42.9379C4.9249 42.585 9.47419 42.1264 14.2739 41.7383C44.1991 39.3391 75.7519 42.0205 105.218 44.3491C142.155 47.2422 189.943 52.9225 227.256 48.3712C238.525 46.9952 249.335 45.0195 260.27 43.5023C260.812 43.4318 261.355 43.3612 261.856 43.2907C258.558 39.9389 254.76 36.3402 250.754 32.6709C246.496 32.2475 240.82 31.93 237.607 32.4592Z" fill="#DFB462"/>
<path d="M261.813 69.8929C252.298 70.0341 243.282 70.0341 234.351 70.8455C224.626 71.7629 220.661 73.3858 214.526 75.538C197.831 81.3594 166.153 82.7354 141.362 84.1114C127.672 84.8523 119.867 85.8402 110.477 88.945C104.55 90.8855 99.4581 90.956 91.862 92.085C90.7768 92.2614 89.8169 92.4731 88.9404 92.7201C107.012 94.3078 125.377 94.2725 143.574 93.708C146.036 92.5437 152.464 91.1677 154.383 90.7443C168.282 87.6748 190.193 87.7101 206.638 86.0872C221.412 84.6406 238.358 82.0651 255.344 80.7949C259.226 76.8787 262.773 73.1741 265.695 69.9282C264.359 69.893 263.066 69.8929 261.813 69.8929Z" fill="#DFB462"/>
<path d="M5.51012 55.5334C11.7289 55.3217 17.8642 55.1805 24.1247 54.9688C42.614 54.3338 59.3504 53.1695 77.4223 55.4981C92.7814 57.4738 107.222 60.2964 121.788 62.6955C139.568 65.6239 115.528 68.7287 105.845 69.4696C72.8313 72.0098 40.3185 74.4795 5.67707 73.9856C5.92749 75.6791 6.05269 77.4432 6.13617 79.2073C19.5754 79.8423 34.3084 79.9834 47.1215 79.5954C59.7677 79.2425 72.4556 78.4664 84.8514 77.9371C94.4926 77.549 104.175 76.0319 113.191 74.8323C122.957 73.5269 132.264 71.9393 141.405 70.281C150.67 68.6228 157.89 66.1884 168.492 65.1652C172.749 64.7418 196.539 64.1068 193.2 62.8014C189.777 61.4607 166.196 62.3074 160.77 62.3427C136.104 62.4133 115.653 58.3206 94.4091 54.9688C80.5525 52.7814 65.903 49.9236 50.21 49.1121C33.891 48.2654 16.7373 48.6887 0.626953 49.7119C0.710426 51.723 0.7939 53.7693 0.835636 55.7803C2.37989 55.6745 3.92413 55.5686 5.51012 55.5334Z" fill="#DFB462"/>
<path d="M45.1206 90.215C57.2659 89.086 69.2861 90.6384 81.3062 91.9791C81.3897 91.9791 81.4314 91.9791 81.5149 92.0144C85.8555 91.3793 90.4048 90.7795 93.2846 90.1092C105.013 87.3572 115.155 83.441 129.512 81.7827C141.49 80.4067 153.761 80.8301 166.407 80.4773C177.509 80.1598 186.19 79.0308 195.205 77.2667C206.14 75.1145 213.695 71.7981 225.297 69.9281C236.733 68.0935 251.466 67.0351 264.697 67.1762C265.782 67.1762 266.909 67.1762 268.078 67.2115C271.542 63.1541 273.67 60.1199 273.67 58.8145C273.628 56.5212 269.997 51.7934 264.488 45.972C261.233 46.0778 258.562 46.1837 257.143 46.3248C245.999 47.4891 234.73 49.2179 224.838 51.0172C203.469 54.8276 179.304 52.5696 155.514 51.0172C138.527 49.9235 122.083 48.8651 105.054 47.3832C86.6485 45.7603 68.0757 43.5376 49.169 42.7966C35.4794 42.2674 23.2923 43.5376 9.8114 43.7492C7.26546 43.7845 4.00999 43.9257 0.378906 44.1021C0.420643 45.478 0.504126 46.8187 0.545863 48.1947C7.93324 47.8419 14.945 47.3127 22.2489 46.8893C47.7082 45.4428 76.2561 48.8298 98.2095 52.4638C118.994 55.9214 134.52 60.5785 159.437 61.2842C176.466 61.7428 194.496 61.7075 209.938 64.2478C229.388 67.4231 199.212 66.5411 191.449 66.4706C169.913 66.2941 158.769 71.0571 142.158 74.1619C132.642 75.9613 120.33 77.1961 109.812 78.4663C97.2079 79.9834 83.5182 81.1477 69.7869 81.6416C49.3777 82.3825 27.2155 81.5357 6.22203 80.8301C6.34724 85.2403 6.22203 89.7916 6.34724 94.0254C11.6895 95.0486 17.9918 92.5789 23.3758 92.3672C30.8466 91.9438 37.8584 90.8854 45.1206 90.215Z" fill="#DFB462"/>
<path d="M229.383 105.845C227.797 105.704 226.211 105.527 224.667 105.386C218.99 104.822 214.233 104.363 209.308 104.01C209.475 112.513 210.142 121.016 211.311 121.863C211.603 122.039 219.408 115.159 229.383 105.845Z" fill="#DFB462"/>
<path d="M6.47189 60.8961C12.6906 60.1552 18.9929 59.4848 26.0463 59.4496C37.2735 59.4143 73.3339 57.6855 78.6762 61.8487C84.9367 66.7528 50.3788 66.2589 41.5306 66.2942C28.2584 66.3647 16.9895 68.2699 4.63547 68.9756C4.92762 69.9635 5.17804 71.0219 5.38672 72.0803C18.7842 72.2567 30.8461 71.41 44.16 71.3394C56.2637 71.2689 69.202 70.3515 81.1804 69.6812C93.2006 69.0108 103.176 68.0935 112.692 65.9414C123.209 63.5775 104.511 63.0483 97.5829 62.0604C87.3992 60.6139 79.4275 58.1088 68.7012 56.8387C55.1368 55.2158 37.1483 56.6976 23.4169 57.2974C15.9044 57.6502 8.43349 57.9324 0.920898 58.1441C0.920898 58.9909 0.96265 59.8729 0.96265 60.7197C2.96601 60.5433 4.76069 60.6138 6.47189 60.8961Z" fill="#DFB462"/>
<path d="M10.0596 66.5059C24.9596 65.765 39.6509 64.4949 54.0918 63.6481C58.5993 63.3659 67.8649 63.3306 60.8531 61.6371C57.222 60.755 48.7912 60.9667 44.2419 60.9667C33.5991 61.002 22.7058 61.7076 12.2717 62.4838C13.5655 62.9425 14.9011 63.4364 16.3201 63.8951C13.2316 64.4243 9.72574 65.1652 6.7207 66.5765C8.05627 66.5765 9.18316 66.5765 10.0596 66.5059Z" fill="#DFB462"/>
<g opacity="0.5">
<path d="M270.959 53.5929C270.751 53.5929 270.542 53.5929 270.333 53.6282C270.709 60.1553 265.492 62.0605 261.026 66.6471C256.811 70.9514 253.43 75.5733 248.505 79.7365C242.286 84.9934 235.567 89.3331 228.931 93.9902C225.216 96.6011 220.458 104.292 216.368 104.786C217.119 101.823 218.705 90.8502 215.784 88.4863C212.57 85.8755 199.84 87.569 195.208 87.569C172.002 87.569 149.297 87.4631 126.092 89.1214C99.2133 91.0619 74.0461 83.053 47.2512 83.8644C35.3563 84.2173 23.044 85.8402 11.6081 87.075C9.72999 87.2867 7.89356 87.2867 6.14062 87.1456C6.14062 89.4742 6.14064 91.7322 6.18238 93.9549C11.5247 94.9781 17.8269 92.5084 23.2109 92.2967C30.6818 91.9792 37.6935 90.9207 44.9557 90.2504C57.101 89.1214 69.1212 90.6738 81.1413 92.0145C108.521 95.1192 136.735 94.2372 164.03 92.8612C179.014 92.1203 194.415 90.3562 209.398 91.3088C208.772 100.905 209.398 120.557 211.193 121.863C211.944 122.392 273.631 65.7297 273.505 58.7793C273.589 57.615 272.629 55.8156 270.959 53.5929Z" fill="#866A34"/>
<path d="M6.80762 66.5412C9.72918 65.765 12.5673 65.0947 14.7376 64.2126C12.0664 64.7066 9.27008 65.4122 6.80762 66.5412Z" fill="#866A34"/>
<path d="M0.838121 60.8256C6.59777 60.1553 10.521 61.9546 15.7381 63.754C17.0319 63.1189 17.9501 62.3427 18.2005 61.3901C19.5779 56.3448 8.76806 54.1574 0.712891 53.734C0.796364 56.0979 0.838121 58.4617 0.838121 60.8256Z" fill="#866A34"/>
</g>
<path d="M93.1413 65.6296C93.1594 65.226 93.1828 64.8901 93.2117 64.6218C93.2414 64.3367 93.2943 64.0947 93.3706 63.8959C93.8262 63.8827 94.1747 63.814 94.4161 63.6901C94.6752 63.55 94.8634 63.2973 94.9809 62.9319C95.0984 62.5664 95.1733 62.0222 95.2057 61.2991L95.5834 52.8742C95.615 52.1679 95.5968 51.6363 95.5285 51.2794C95.4603 50.9225 95.303 50.6712 95.0568 50.5253C94.8282 50.3634 94.488 50.2471 94.0362 50.1763C93.9787 49.9546 93.9396 49.7001 93.9188 49.4128C93.8987 49.1086 93.8966 48.7799 93.9124 48.4268C94.2816 48.4602 94.7265 48.497 95.247 48.5371C95.7851 48.5613 96.3565 48.5953 96.9611 48.6392C97.5665 48.6664 98.1467 48.6924 98.7016 48.7173C99.2565 48.7421 99.7358 48.7636 100.139 48.7817L99.5831 61.192C99.5507 61.9151 99.6007 62.4902 99.7332 62.9174C99.8833 63.3285 100.139 63.6433 100.5 63.8617C100.878 64.064 101.394 64.2051 102.048 64.2849C102.138 64.5249 102.184 64.805 102.187 65.1252C102.19 65.4287 102.185 65.7317 102.172 66.0344C101.87 66.004 101.467 65.9691 100.963 65.9297C100.475 65.9078 99.9544 65.8761 99.4002 65.8344C98.8453 65.8095 98.3156 65.7858 97.8111 65.7631C96.9871 65.7262 96.1295 65.6878 95.2383 65.6478C94.3631 65.6254 93.6641 65.6194 93.1413 65.6296ZM105.05 53.7029C104.991 53.1274 104.854 52.6074 104.639 52.1428C104.442 51.6621 104.105 51.2848 103.628 51.0107C103.153 50.7197 102.461 50.5539 101.553 50.5132L99.0558 50.4013L99.9124 48.7715C101.19 48.8288 102.267 48.8771 103.141 48.9163C104.033 48.9394 104.782 48.9645 105.387 48.9917C105.993 49.002 106.507 49.0082 106.928 49.0102C106.927 49.4146 106.939 49.8869 106.966 50.4273C106.992 50.9677 107.027 51.5 107.071 52.0243C107.116 52.5318 107.179 52.9896 107.262 53.3977C106.988 53.5034 106.672 53.5903 106.315 53.6586C105.976 53.7108 105.554 53.7256 105.05 53.7029Z" fill="#785B30"/>
<path d="M117.346 68.5657C115.565 68.4554 114.06 67.9911 112.828 67.1728C111.598 66.3377 110.671 65.243 110.047 63.8889C109.44 62.5189 109.191 60.9603 109.299 59.2131C109.381 57.8858 109.665 56.7059 110.151 55.6735C110.654 54.6253 111.307 53.7466 112.11 53.0374C112.93 52.3292 113.873 51.8058 114.939 51.4671C116.023 51.1294 117.186 50.999 118.429 51.076C120.16 51.1832 121.642 51.6291 122.875 52.4139C124.126 53.1828 125.074 54.2197 125.718 55.5245C126.362 56.8293 126.632 58.3385 126.525 60.0522C126.443 61.3795 126.166 62.585 125.694 63.6689C125.223 64.736 124.585 65.6493 123.779 66.409C122.973 67.1686 122.027 67.7424 120.94 68.1305C119.855 68.5018 118.657 68.6468 117.346 68.5657ZM117.81 66.7982C118.616 66.8482 119.314 66.6131 119.903 66.093C120.493 65.5561 120.961 64.8009 121.308 63.8273C121.673 62.838 121.897 61.6713 121.98 60.3273C122.063 58.9832 121.954 57.7537 121.652 56.6387C121.351 55.507 120.885 54.5927 120.253 53.8959C119.622 53.199 118.853 52.8225 117.945 52.7663C117.189 52.7195 116.518 52.9309 115.933 53.4006C115.347 53.8703 114.874 54.5662 114.513 55.4883C114.153 56.4104 113.931 57.5351 113.849 58.8624C113.786 59.8872 113.818 60.8674 113.945 61.8029C114.073 62.7384 114.291 63.5783 114.599 64.3226C114.925 65.0511 115.352 65.6341 115.882 66.0717C116.411 66.5092 117.054 66.7514 117.81 66.7982Z" fill="#785B30"/>
<path d="M130.853 66.9694C130.416 66.9391 130.026 66.8446 129.683 66.6858C129.355 66.545 129.095 66.4004 128.903 66.2521C128.787 65.7378 128.761 65.1454 128.824 64.4749C128.887 63.8043 129.019 63.2398 129.22 62.7812C129.468 62.8491 129.759 62.9114 130.093 62.9683C130.426 63.0252 130.736 63.0635 131.021 63.0833C131.525 63.1182 131.944 63.0292 132.28 62.8162C132.616 62.5864 132.94 62.0521 133.251 61.2131C133.476 60.6549 133.711 59.8107 133.959 58.6805C134.224 57.5346 134.453 56.0488 134.647 54.223C134.73 53.5201 134.75 52.9899 134.707 52.6326C134.664 52.2753 134.496 52.019 134.203 51.8637C133.928 51.6928 133.457 51.5505 132.79 51.4367C132.738 51.2138 132.706 50.9416 132.695 50.6202C132.685 50.282 132.689 49.9702 132.709 49.6847C133.345 49.7625 134.208 49.8477 135.298 49.9401C136.407 50.017 137.801 50.1136 139.48 50.23C140.941 50.3313 142.133 50.4139 143.057 50.4779C143.998 50.5263 144.754 50.5703 145.325 50.6099C145.898 50.6327 146.352 50.6473 146.689 50.6538C146.668 50.9561 146.639 51.2494 146.603 51.5337C146.566 51.818 146.488 52.0994 146.367 52.3779C145.91 52.3968 145.56 52.4653 145.315 52.5834C145.071 52.7014 144.885 52.9417 144.759 53.3041C144.651 53.6509 144.572 54.177 144.523 54.8823L143.94 63.2954C143.89 64.0175 143.894 64.5662 143.952 64.9414C144.027 65.3179 144.177 65.5898 144.402 65.7572C144.645 65.909 144.991 66.0174 145.442 66.0825C145.496 66.2886 145.519 66.5602 145.512 66.8972C145.524 67.2186 145.519 67.5305 145.498 67.8327C145.098 67.7712 144.562 67.7088 143.891 67.6454C143.236 67.6 142.523 67.5505 141.75 67.497C140.978 67.4434 140.197 67.3893 139.408 67.3346C138.634 67.2978 137.969 67.2771 137.413 67.2722C137.432 66.9867 137.471 66.6772 137.528 66.3437C137.601 66.0114 137.679 65.7468 137.76 65.5499C138.216 65.5477 138.566 65.4876 138.81 65.3696C139.056 65.2348 139.233 64.9855 139.343 64.6219C139.452 64.2583 139.532 63.7154 139.582 62.9934L140.165 54.5802C140.219 53.8078 140.224 53.2513 140.18 52.9108C140.137 52.5535 139.978 52.2893 139.703 52.1184C139.542 52.006 139.345 51.9249 139.113 51.875C138.881 51.8083 138.673 51.7686 138.488 51.7558C138.236 51.7383 137.999 51.7472 137.778 51.7825C137.573 51.8189 137.409 51.8666 137.287 51.9256C137.113 51.9979 136.979 52.1067 136.885 52.2521C136.79 52.3974 136.714 52.6368 136.658 52.9703C136.602 53.2871 136.528 53.7375 136.437 54.3218C136.14 56.4272 135.842 58.2795 135.546 59.8788C135.249 61.4781 134.904 62.8125 134.509 63.8819C134.131 64.9525 133.645 65.754 133.052 66.2866C132.459 66.8023 131.726 67.0299 130.853 66.9694Z" fill="#785B30"/>
<path d="M158.013 69.162C156.238 68.9781 154.752 68.4519 153.556 67.5834C152.362 66.6981 151.481 65.566 150.913 64.1872C150.363 62.7933 150.179 61.2257 150.359 59.4844C150.496 58.1617 150.829 56.9946 151.356 55.9831C151.903 54.9567 152.592 54.1058 153.423 53.4304C154.272 52.7567 155.236 52.2727 156.315 51.9785C157.412 51.6859 158.579 51.6038 159.818 51.7322C161.543 51.9109 163.005 52.4178 164.205 53.2528C165.423 54.0729 166.327 55.1481 166.917 56.4784C167.507 57.8088 167.713 59.3279 167.536 61.0357C167.399 62.3584 167.072 63.5515 166.556 64.6149C166.041 65.6616 165.366 66.5477 164.529 67.2734C163.692 67.999 162.723 68.5332 161.621 68.876C160.521 69.202 159.319 69.2973 158.013 69.162ZM158.549 67.4153C159.353 67.4986 160.059 67.2926 160.669 66.7973C161.281 66.2853 161.78 65.5501 162.167 64.5917C162.572 63.6183 162.844 62.4619 162.983 61.1224C163.122 59.783 163.064 58.55 162.808 57.4235C162.554 56.2803 162.126 55.3475 161.524 54.6251C160.922 53.9027 160.169 53.4947 159.265 53.401C158.511 53.3229 157.832 53.5064 157.228 53.9515C156.623 54.3965 156.122 55.0723 155.723 55.9787C155.325 56.8851 155.057 57.9996 154.92 59.3223C154.814 60.3437 154.805 61.3243 154.894 62.2643C154.983 63.2043 155.166 64.0525 155.443 64.8089C155.738 65.5502 156.142 66.1505 156.652 66.6096C157.163 67.0687 157.795 67.3372 158.549 67.4153Z" fill="#785B30"/>
<path d="M169.233 53.9935C169.552 53.968 169.972 53.929 170.491 53.8768C171.011 53.8245 171.487 53.7694 171.921 53.7116C172.355 53.6537 172.889 53.5826 173.523 53.498C174.155 53.3968 174.788 53.3039 175.422 53.2194C176.07 53.1159 176.628 53.0331 177.095 52.9708C178.68 52.7595 179.966 52.7239 180.953 52.864C181.956 53.002 182.713 53.3257 183.222 53.8351C183.748 54.3424 184.07 55.0382 184.188 55.9225C184.319 56.9069 184.091 57.8035 183.502 58.6121C182.931 59.4186 182.031 59.997 180.804 60.3474C181.931 60.2651 182.877 60.3513 183.641 60.606C184.419 60.8419 185.026 61.2534 185.461 61.8408C185.894 62.4114 186.17 63.1472 186.29 64.0482C186.417 64.9993 186.279 65.8753 185.877 66.6762C185.491 67.4748 184.783 68.155 183.754 68.7168C182.725 69.2785 181.31 69.6795 179.508 69.9198C178.84 70.0087 178.148 70.1011 177.431 70.1967C176.73 70.2902 176.029 70.3836 175.328 70.477C174.63 70.5871 173.955 70.6856 173.304 70.7723C172.672 70.8736 172.074 70.9703 171.509 71.0626C171.464 70.7289 171.43 70.4108 171.407 70.1082C171.398 69.7868 171.414 69.5215 171.454 69.3124C171.9 69.2189 172.231 69.0899 172.447 68.9253C172.677 68.7417 172.809 68.4609 172.844 68.0827C172.893 67.6855 172.868 67.1199 172.77 66.3858L171.662 58.0765C171.569 57.3757 171.449 56.8568 171.302 56.5197C171.172 56.1804 170.973 55.9608 170.705 55.8606C170.451 55.7416 170.087 55.6882 169.614 55.7005C169.535 55.4902 169.456 55.2205 169.378 54.8912C169.315 54.543 169.266 54.2438 169.233 53.9935ZM175.549 54.1705L177.12 65.9586C177.216 66.6761 177.363 67.2084 177.562 67.5554C177.761 67.9025 178.012 68.1239 178.313 68.2195C178.612 68.2985 178.954 68.3124 179.338 68.2612C180.105 68.1589 180.688 67.818 181.086 67.2384C181.501 66.6567 181.647 65.907 181.525 64.9893C181.438 64.3385 181.275 63.8168 181.036 63.4242C180.795 63.0148 180.483 62.7167 180.102 62.5298C179.735 62.324 179.303 62.2034 178.805 62.1678C178.323 62.1132 177.798 62.1238 177.23 62.1994L175.804 62.3896L175.58 60.7128L177.282 60.4859C177.966 60.3947 178.51 60.2033 178.912 59.9119C179.332 59.6182 179.621 59.24 179.78 58.7773C179.939 58.3146 179.978 57.7829 179.898 57.1822C179.816 56.5648 179.614 56.0654 179.291 55.6838C178.985 55.3001 178.61 55.0359 178.166 54.8913C177.739 54.7444 177.275 54.7044 176.775 54.7711C176.491 54.809 176.236 54.8685 176.009 54.9497C175.799 55.0286 175.577 55.1516 175.345 55.3184L175.549 54.1705Z" fill="#785B30"/>
<path d="M201.038 67.3799C201.031 67.0938 201.042 66.7821 201.068 66.4448C201.111 66.1071 201.165 65.8366 201.228 65.6332C201.681 65.5899 202.024 65.4984 202.257 65.3587C202.49 65.2022 202.644 64.938 202.72 64.566C202.796 64.1939 202.827 63.6461 202.811 62.9224L202.632 54.491C202.617 53.7842 202.563 53.255 202.472 52.9033C202.38 52.5517 202.215 52.3111 201.977 52.1815C201.738 52.035 201.382 51.9416 200.91 51.9011C200.838 51.6838 200.782 51.4156 200.741 51.0966C200.7 50.7607 200.677 50.4497 200.671 50.1636C200.957 50.1744 201.353 50.1828 201.858 50.1888C202.363 50.1781 202.885 50.1754 203.424 50.1807C203.962 50.1693 204.425 50.1594 204.812 50.1512C205.216 50.1426 205.654 50.1332 206.125 50.1232C206.613 50.096 207.092 50.0774 207.563 50.0673C208.034 50.0404 208.438 50.015 208.774 49.991C208.78 50.2939 208.778 50.5886 208.768 50.8751C208.757 51.1615 208.704 51.4489 208.609 51.7371C208.156 51.7973 207.804 51.8974 207.555 52.0374C207.322 52.1771 207.168 52.4329 207.091 52.8049C207.015 53.1601 206.984 53.6912 206.999 54.398L207.179 62.8294C207.194 63.553 207.248 64.0991 207.34 64.4675C207.449 64.8356 207.622 65.0929 207.861 65.2394C208.117 65.3686 208.472 65.4452 208.927 65.4692C208.982 65.6701 209.03 65.9384 209.07 66.2743C209.111 66.5934 209.134 66.9043 209.141 67.2073C208.736 67.1822 208.197 67.1684 207.524 67.1659C206.867 67.1799 206.152 67.1952 205.378 67.2116C204.587 67.2285 203.804 67.2452 203.03 67.2617C202.256 67.295 201.592 67.3344 201.038 67.3799ZM191.066 67.5923C191.06 67.3062 191.07 66.9945 191.097 66.6572C191.14 66.3195 191.185 66.0492 191.231 65.8461C191.685 65.8028 192.028 65.7113 192.261 65.5717C192.51 65.4148 192.673 65.1504 192.749 64.7783C192.825 64.4063 192.856 63.8585 192.84 63.1348L192.661 54.7034C192.646 53.9966 192.592 53.4674 192.5 53.1157C192.409 52.7641 192.235 52.5237 191.98 52.3944C191.741 52.248 191.394 52.1544 190.939 52.1135C190.867 51.8962 190.81 51.628 190.77 51.309C190.729 50.9731 190.706 50.6621 190.699 50.376C190.986 50.3868 191.373 50.3953 191.862 50.4018C192.367 50.391 192.889 50.3883 193.427 50.3937C193.983 50.3819 194.454 50.3718 194.841 50.3636C195.228 50.3553 195.666 50.346 196.154 50.3356C196.641 50.3084 197.121 50.2898 197.592 50.2797C198.063 50.2528 198.467 50.2274 198.803 50.2034C198.809 50.5063 198.807 50.801 198.796 51.0875C198.786 51.3739 198.733 51.6613 198.638 51.9495C198.185 52.0097 197.833 52.1098 197.584 52.2498C197.351 52.3895 197.196 52.6453 197.12 53.0173C197.043 53.3725 197.013 53.9036 197.028 54.6104L197.207 63.0418C197.223 63.7654 197.276 64.3115 197.368 64.6799C197.461 65.0484 197.634 65.3057 197.89 65.4517C198.145 65.581 198.492 65.6578 198.93 65.6821C199.002 65.8827 199.058 66.1508 199.099 66.4867C199.14 66.8058 199.163 67.1167 199.169 67.4197C198.765 67.3946 198.226 67.3808 197.552 67.3783C196.879 67.3927 196.155 67.4081 195.381 67.4246C194.607 67.4411 193.825 67.4577 193.034 67.4746C192.26 67.5079 191.604 67.5471 191.066 67.5923ZM197.01 59.6871L196.967 57.6928L202.849 57.5675L202.887 59.3346C202.449 59.3439 201.97 59.3625 201.448 59.3905C200.926 59.4016 200.397 59.4213 199.858 59.4496C199.337 59.4775 198.824 59.5137 198.32 59.5581C197.832 59.5853 197.396 59.6283 197.01 59.6871Z" fill="#785B30"/>
<path d="M53.6085 64.7248C53.5787 64.4402 53.5631 64.1287 53.5615 63.7904C53.5767 63.4503 53.6072 63.1763 53.6532 62.9684C54.1017 62.8876 54.4361 62.7679 54.6565 62.6095C54.8751 62.4343 55.007 62.1581 55.0522 61.7811C55.0973 61.404 55.0822 60.8555 55.0069 60.1356L54.1289 51.7481C54.0553 51.045 53.9583 50.522 53.8378 50.1792C53.7173 49.8364 53.5328 49.6103 53.2844 49.5009C53.0343 49.3747 52.6722 49.3111 52.1982 49.3099C52.1084 49.0993 52.0302 48.8367 51.9634 48.5221C51.8948 48.1908 51.8457 47.8828 51.8159 47.5982C52.1023 47.5851 52.4974 47.5607 53.0014 47.5249C53.5037 47.4723 54.0235 47.4264 54.561 47.387C55.0968 47.331 55.5571 47.2828 55.9422 47.2425C56.344 47.2004 56.7793 47.1548 57.248 47.1058C57.7318 47.0382 58.208 46.9799 58.6768 46.9308C59.1438 46.865 59.5439 46.8062 59.8769 46.7544C59.9085 47.0558 59.9308 47.3496 59.9438 47.636C59.9569 47.9224 59.9281 48.2131 59.8574 48.5082C59.4106 48.6058 59.0687 48.7346 58.8316 48.8949C58.6112 49.0533 58.4785 49.3211 58.4333 49.6982C58.3864 50.0585 58.3998 50.5902 58.4734 51.2934L59.3513 59.6809C59.4266 60.4008 59.5254 60.9405 59.6477 61.3C59.7867 61.6578 59.9813 61.8998 60.2314 62.026C60.4966 62.1336 60.8569 62.1805 61.3124 62.1667C61.3837 62.3623 61.4536 62.6258 61.5221 62.9571C61.5889 63.2717 61.638 63.5797 61.6696 63.881C61.2643 63.8896 60.7259 63.9206 60.0545 63.9739C59.4016 64.0423 58.6901 64.1167 57.92 64.1973C57.1331 64.2797 56.3546 64.3612 55.5845 64.4418C54.8162 64.5391 54.1575 64.6335 53.6085 64.7248ZM43.6892 65.763C43.6594 65.4784 43.6437 65.167 43.6422 64.8286C43.6573 64.4885 43.6795 64.2154 43.7087 64.0093C44.1572 63.9285 44.4917 63.8088 44.712 63.6504C44.9474 63.4734 45.0876 63.1964 45.1328 62.8193C45.178 62.4422 45.1629 61.8938 45.0875 61.1739L44.2096 52.7864C44.136 52.0832 44.0389 51.5603 43.9184 51.2174C43.7979 50.8746 43.6051 50.6494 43.34 50.5418C43.0898 50.4156 42.7361 50.3511 42.2788 50.3482C42.1891 50.1375 42.1108 49.8749 42.044 49.5604C41.9755 49.229 41.9263 48.9211 41.8965 48.6365C42.1829 48.6234 42.5697 48.5998 43.057 48.5658C43.5592 48.5132 44.0791 48.4672 44.6166 48.4279C45.169 48.3701 45.6378 48.321 46.0228 48.2807C46.4079 48.2404 46.8432 48.1949 47.3287 48.144C47.8124 48.0765 48.2887 48.0182 48.7575 47.9691C49.2245 47.9033 49.6245 47.8445 49.9576 47.7927C49.9891 48.0941 50.0114 48.3879 50.0245 48.6743C50.0375 48.9606 50.0087 49.2514 49.9381 49.5465C49.4913 49.644 49.1494 49.7729 48.9123 49.9331C48.6919 50.0916 48.5591 50.3594 48.514 50.7364C48.4671 51.0968 48.4804 51.6285 48.554 52.3316L49.4319 60.7191C49.5073 61.439 49.6061 61.9787 49.7283 62.3383C49.8506 62.6979 50.0452 62.9398 50.3121 63.0642C50.5772 63.1719 50.9292 63.2196 51.368 63.2076C51.456 63.4015 51.5342 63.6641 51.6027 63.9954C51.6695 64.31 51.7187 64.6179 51.7502 64.9193C51.3449 64.9279 50.8066 64.9588 50.1352 65.0122C49.4655 65.0823 48.7456 65.1576 47.9755 65.2382C47.2054 65.3188 46.4269 65.4003 45.6401 65.4827C44.8717 65.58 44.2214 65.6735 43.6892 65.763ZM48.9568 57.3924L48.7491 55.4085L54.6003 54.796L54.7843 56.5539C54.349 56.5995 53.8727 56.6578 53.3555 56.7288C52.8365 56.7832 52.31 56.8467 51.7761 56.9195C51.2588 56.9906 50.7508 57.0692 50.2521 57.1552C49.7684 57.2228 49.3366 57.3018 48.9568 57.3924Z" fill="#785B30"/>
<path d="M216.884 67.0557C216.203 66.9428 215.633 66.7287 215.173 66.4136C214.73 66.1012 214.417 65.7763 214.234 65.4388C214.237 65.115 214.294 64.7151 214.408 64.239C214.521 63.7629 214.674 63.3533 214.867 63.01C215.15 63.1592 215.508 63.3125 215.943 63.47C216.394 63.6301 216.935 63.7626 217.566 63.8673C218.214 63.9747 218.731 63.9924 219.119 63.9201C219.523 63.8506 219.866 63.6857 220.148 63.4254C220.449 63.1512 220.762 62.7594 221.085 62.25C222.106 61.242 223.076 60.1744 223.997 59.0475C224.937 57.9067 225.91 56.6178 226.916 55.1808C227.364 54.5384 227.551 54.0319 227.476 53.6611C227.417 53.2931 227.072 53.0056 226.441 52.7985C226.408 52.5882 226.398 52.3391 226.412 52.0513C226.425 51.7635 226.464 51.4286 226.527 51.0467C226.74 51.0991 226.995 51.1584 227.291 51.2246C227.607 51.277 227.929 51.339 228.258 51.4107C228.607 51.4686 228.914 51.5196 229.18 51.5636C229.579 51.6298 230.02 51.6945 230.504 51.7578C231.005 51.8238 231.398 51.872 231.683 51.9022C231.628 52.2343 231.552 52.5374 231.456 52.8114C231.376 53.0882 231.282 53.3457 231.174 53.5837C230.864 53.6006 230.585 53.6907 230.336 53.8541C230.09 54.001 229.828 54.2392 229.552 54.5687C229.278 54.8816 228.932 55.3191 228.515 55.8812L222.328 64.171C221.733 64.9767 221.133 65.6109 220.527 66.0735C219.941 66.5222 219.345 66.8243 218.739 66.9797C218.133 67.1351 217.515 67.1604 216.884 67.0557ZM220.795 63.5329C220.407 62.3764 219.984 61.2227 219.527 60.0719C219.086 58.9237 218.667 57.8476 218.271 56.8433C217.891 55.8418 217.546 54.9911 217.236 54.2912C216.944 53.5774 216.676 52.9868 216.429 52.5193C216.199 52.0546 215.969 51.6922 215.739 51.4322C215.526 51.175 215.274 50.9967 214.983 50.8973C214.953 50.6704 214.944 50.4131 214.958 50.1253C214.991 49.8236 215.036 49.4984 215.094 49.1497C215.291 49.1993 215.553 49.26 215.883 49.3317C216.215 49.3868 216.571 49.4544 216.95 49.5344C217.332 49.5977 217.689 49.657 218.021 49.7121C218.37 49.7699 218.652 49.8168 218.868 49.8526C219.266 49.9187 219.839 50.0138 220.587 50.1378C221.337 50.2452 222.071 50.3415 222.791 50.4267C222.728 50.8087 222.656 51.138 222.576 51.4148C222.496 51.6916 222.414 51.9255 222.331 52.1165C221.872 52.1086 221.547 52.1655 221.356 52.2874C221.168 52.3927 221.085 52.5837 221.107 52.8604C221.149 53.1233 221.259 53.4913 221.436 53.9644C221.713 54.6588 221.953 55.2702 222.156 55.7986C222.377 56.3131 222.578 56.7987 222.758 57.2551C222.939 57.7116 223.109 58.175 223.27 58.6454C223.448 59.1184 223.646 59.6718 223.865 60.3053L220.795 63.5329Z" fill="#785B30"/>
<path d="M76.7754 48.5449L80.4047 61.9633C80.6618 62.8057 80.8652 63.452 81.0147 63.9021C81.1668 64.3356 81.3237 64.6335 81.4852 64.7958C81.6633 64.9607 81.8661 65.0784 82.0935 65.149C82.1253 65.3757 82.1339 65.6413 82.1192 65.9458C82.1072 66.2337 82.0732 66.5522 82.0173 66.9012C81.7235 66.82 81.3452 66.7338 80.8824 66.6427C80.4171 66.5681 79.9517 66.4935 79.4863 66.419C79.0209 66.3444 78.6552 66.2858 78.3893 66.2432C78.1898 66.2113 77.9073 66.166 77.5416 66.1074C77.1926 66.0515 76.8103 65.9902 76.3948 65.9237C75.9932 65.8764 75.6096 65.8234 75.2439 65.7649C74.8756 65.7229 74.5904 65.6942 74.3883 65.6789C74.4522 65.28 74.5221 64.9502 74.5979 64.6896C74.6738 64.429 74.7622 64.196 74.8633 63.9906C75.4637 63.9674 75.8351 63.8309 75.9774 63.5809C76.139 63.317 76.1361 62.8563 75.9687 62.1987L74.5437 56.7282C74.3026 55.7861 74.1173 54.921 73.9878 54.1331C73.8776 53.3313 73.798 52.5514 73.7489 51.7934L74.4719 51.9093C74.1527 52.6253 73.8071 53.3456 73.4353 54.0702C73.0801 54.7975 72.6614 55.5487 72.1792 56.3238L69.4935 60.9567C69.1923 61.4539 69.0761 61.9127 69.1452 62.3329C69.2143 62.7531 69.5247 63.05 70.0765 63.2237C70.1057 63.467 70.1143 63.7326 70.1022 64.0205C70.0902 64.3084 70.0562 64.6268 70.0003 64.9759C69.8201 64.93 69.5652 64.8721 69.2354 64.8022C68.903 64.7489 68.5553 64.6847 68.1923 64.6095C67.8433 64.5536 67.5275 64.503 67.2449 64.4577C66.8294 64.3911 66.3972 64.3219 65.9485 64.25C65.5137 64.1974 65.1689 64.1677 64.9143 64.161C64.9675 63.8286 65.0321 63.5321 65.1079 63.2715C65.1838 63.0109 65.2859 62.7459 65.4143 62.4767C65.7048 62.4721 65.9618 62.411 66.1852 62.2934C66.4113 62.1591 66.6437 61.9321 66.8825 61.6124C67.1379 61.2953 67.4504 60.8339 67.8202 60.2283L75.11 48.4059C75.4032 48.3847 75.6661 48.3927 75.8988 48.43C76.1508 48.4533 76.443 48.4916 76.7754 48.5449ZM75.9323 59.7124L76.1414 61.2802C75.0278 61.1018 73.8617 60.932 72.643 60.7709C71.441 60.6124 70.2572 60.4994 69.0917 60.432L69.7493 58.7218L75.9323 59.7124Z" fill="#785B30"/>
</svg>
