<?xml version="1.0" encoding="utf-8"?>
<!-- Generator: Adobe Illustrator 27.0.0, SVG Export Plug-In . SVG Version: 6.00 Build 0)  -->
<svg version="1.1" id="Слой_2" xmlns="http://www.w3.org/2000/svg" xmlns:xlink="http://www.w3.org/1999/xlink" x="0px" y="0px"
	 viewBox="0 0 1500 1500" style="enable-background:new 0 0 1500 1500;" xml:space="preserve">
<style type="text/css">
	.st0{display:none;}
	.st1{display:inline;fill:#FFFFFF;stroke:#132203;stroke-width:10;stroke-miterlimit:10;}
	.st2{display:inline;fill:#132203;}
	.st3{display:inline;fill:#FFFFFF;}
	.st4{display:none;fill:none;stroke:#071402;stroke-width:10;stroke-linecap:round;stroke-linejoin:round;stroke-miterlimit:10;}
	.st5{fill:#A3C148;}
	.st6{fill:none;stroke:#071402;stroke-width:10;stroke-linecap:round;stroke-linejoin:round;stroke-miterlimit:10;}
	.st7{display:inline;fill:none;stroke:#071402;stroke-width:10;stroke-linecap:round;stroke-linejoin:round;stroke-miterlimit:10;}
	.st8{display:inline;}
	.st9{fill:#8EA538;}
	.st10{fill:#DB54B9;stroke:#071402;stroke-width:10;stroke-linecap:round;stroke-linejoin:round;stroke-miterlimit:10;}
	.st11{fill:#DC4CB9;stroke:#071402;stroke-width:10;stroke-linecap:round;stroke-linejoin:round;stroke-miterlimit:10;}
	.st12{fill:#9D1B5A;stroke:#071402;stroke-width:10;stroke-linecap:round;stroke-linejoin:round;stroke-miterlimit:10;}
	.st13{fill:#DE64D1;stroke:#071402;stroke-width:10;stroke-linecap:round;stroke-linejoin:round;stroke-miterlimit:10;}
	.st14{fill:#610127;stroke:#071402;stroke-width:10;stroke-linecap:round;stroke-linejoin:round;stroke-miterlimit:10;}
	.st15{fill:#D2730D;stroke:#071402;stroke-width:13.6294;stroke-linecap:round;stroke-linejoin:round;stroke-miterlimit:10;}
	.st16{fill:#7E3A54;stroke:#071402;stroke-width:10;stroke-linecap:round;stroke-linejoin:round;stroke-miterlimit:10;}
	.st17{fill:#B2D45B;stroke:#071402;stroke-width:9.1825;stroke-linecap:round;stroke-linejoin:round;stroke-miterlimit:10;}
	.st18{fill:none;stroke:#071402;stroke-width:9.1825;stroke-linecap:round;stroke-linejoin:round;stroke-miterlimit:10;}
	.st19{display:inline;fill:#33B125;}
	.st20{display:inline;fill:#2E871E;}
	.st21{display:none;fill:#232323;}
	.st22{display:none;fill:#2D2D2D;}
	
		.st23{display:none;fill:none;stroke:#071402;stroke-width:8.7233;stroke-linecap:round;stroke-linejoin:round;stroke-miterlimit:10;}
	.st24{display:none;fill:#009036;}
	.st25{display:inline;opacity:0.5;fill:#0F0F0F;}
	.st26{display:inline;fill:#056AC6;}
	.st27{display:inline;fill:#FED501;}
	.st28{display:inline;fill:#0F0F0F;}
	.st29{display:inline;fill:#605000;}
	
		.st30{display:inline;fill:none;stroke:#0F0F0F;stroke-width:10.362;stroke-linecap:round;stroke-linejoin:round;stroke-miterlimit:10;}
	
		.st31{display:inline;fill:none;stroke:#0F0F0F;stroke-width:10.1124;stroke-linecap:round;stroke-linejoin:round;stroke-miterlimit:10;}
	.st32{fill:#B2D45B;}
	.st33{display:none;fill:#CCE388;}
	.st34{display:none;fill:#9DB74E;}
	.st35{display:inline;fill:#071402;}
	.st36{display:inline;fill:#CC6F5E;}
	
		.st37{display:inline;fill:none;stroke:#071402;stroke-width:8.3849;stroke-linecap:round;stroke-linejoin:round;stroke-miterlimit:10;}
	.st38{display:none;fill:#0D2100;}
	.st39{fill:#FFFFFF;stroke:#0D2100;stroke-width:9.7137;stroke-linecap:round;stroke-linejoin:round;stroke-miterlimit:10;}
	.st40{fill:#0D2100;}
	.st41{fill:#FFFFFF;}
	.st42{fill:#A3C148;stroke:#0D2100;stroke-width:9.7137;stroke-linecap:round;stroke-linejoin:round;stroke-miterlimit:10;}
	.st43{fill:none;stroke:#071402;stroke-width:12;stroke-linecap:round;stroke-linejoin:round;stroke-miterlimit:10;}
	.st44{fill:#2A2D1E;}
	.st45{fill:none;stroke:#071402;stroke-width:8;stroke-linecap:round;stroke-linejoin:round;stroke-miterlimit:10;}
	.st46{fill:#DBDBDB;}
	.st47{fill:#BABABA;}
	.st48{fill:none;stroke:#071402;stroke-width:7.6401;stroke-linecap:round;stroke-linejoin:round;stroke-miterlimit:10;}
	.st49{fill:#199BFD;}
	.st50{fill:none;stroke:#DB0000;stroke-width:2.6681;stroke-linecap:round;stroke-linejoin:round;stroke-miterlimit:10;}
	.st51{fill:#B50000;}
	.st52{fill:#C10000;}
	.st53{fill:#DD0000;}
	.st54{fill:#2D2D2D;}
	.st55{fill:#036AB9;}
	.st56{fill:none;stroke:#071402;stroke-width:7.2912;stroke-linecap:round;stroke-linejoin:round;stroke-miterlimit:10;}
	.st57{fill:#004E89;}
	.st58{fill:none;stroke:#071402;stroke-width:7.7181;stroke-linecap:round;stroke-linejoin:round;stroke-miterlimit:10;}
	.st59{fill:#0069B5;}
</style>
<g class="st0">
	<circle class="st1" cx="864.9" cy="469.3" r="85.2"/>
	<circle class="st2" cx="864.9" cy="469.3" r="46.5"/>
	<circle class="st3" cx="893" cy="434.1" r="14.2"/>
</g>
<g class="st0">
	<circle class="st1" cx="714.3" cy="458.2" r="85.2"/>
	<circle class="st2" cx="714.4" cy="458.6" r="46.5"/>
	<circle class="st3" cx="738.3" cy="421.3" r="14.2"/>
</g>
<path class="st4" d="M809.8,1041.1c20.4,97.4,39.4,189.1,39.4,189.1l26.6-0.2"/>
<path class="st4" d="M779,1041.1c-10.4,106.5-19.5,189.1-19.5,189.1l-25.3,1.8"/>
<path class="st5" d="M744.1,822.6c-16.3,38.9-19.7,51.7-18.5,102.2c3.5,139.4,0.9,181.9,35.4,181.9c34.5,0,32.8-37.4,31-179
	c-0.6-42.9-5-72.8-17.9-105.1H744.1z"/>
<path class="st6" d="M744.1,822.6c-16.3,38.9-19.7,51.7-18.5,102.2c3.5,139.4,0.9,181.9,35.4,181.9c34.5,0,32.8-37.4,31-179
	c-0.6-42.9-5-72.8-17.9-105.1H744.1z"/>
<g id="Рука" class="st0">
	<path class="st7" d="M768.8,849.5c0,0-39,19.9-87.1,19.9c-45.2,0-88.6-15.2-88.6-15.2"/>
	<g class="st8">
		<path class="st5" d="M508.8,897.2c11,1.9,19.6,2.6,33.9,1.1c6.1-0.7,11.2-2.3,15.4-4.4c0,0,0,0,0,0s44.3-14.3,37.2-64.5
			c-6.2-43.5-88.4-30.4-88.4-30.4c29.3,21.1,47.3,26.5,36.2,34.6c-4.7-1-9.9-1.5-15.6-1.2c-8.7,0.4-19.2,4.6-24.2,9.7
			s-8,24.8-8,24.8c8.2,2,15.7,3.8,24.5,4.9c-1.9,1.2-3.6,2.6-4.8,4C510.9,880.4,508.8,897.2,508.8,897.2z"/>
		<path class="st9" d="M508.8,897.2c11,1.9,19.6,2.6,33.9,1.1c6.1-0.7,11.2-2.3,15.4-4.4c0,0,0,0,0,0s14-8.1,23.1-15.8
			c-7.8-24.4-11.8-30.4-33.4-44.6c-4.1,1.6-4.8-1-4.7,0.2c-4.7-1-9.9-1.5-15.6-1.2c-8.7,0.4-19.2,4.6-24.2,9.7s-8,24.8-8,24.8
			c8.2,2,15.7,3.8,24.5,4.9c-1.9,1.2-3.6,2.6-4.8,4C510.9,880.4,508.8,897.2,508.8,897.2z"/>
		<g>
			<g>
				<path class="st6" d="M510.6,943c0,0,33.8-77.5,30.4-140.1s-49.4-118.1-49.4-118.1"/>
				<path class="st10" d="M536.5,764.5c-5.5,4.8-70-17.7-57.5-81.9l52.4-23.8C531.4,658.8,576.5,729.1,536.5,764.5z"/>
				<path class="st11" d="M477.8,671.1c-12.9,0.6-48.1,3.7-66.9-27.6S394.6,598,394.6,598s13.8-25,71.4-1.5L477.8,671.1z"/>
				<path class="st12" d="M470.3,682.4c9.3,7.4,13.8,30.5-0.5,39.3s-32.7-1.9-40,1.4c-7.3,3.3-28.5,2.2-24.5-9.1
					c4-11.3,11.8-10.3,14.4-28.6C422.2,667.1,445.6,662.8,470.3,682.4z"/>
				<path class="st11" d="M495.9,604.2c16.3-15.6,68.2-33.3,81.4-26.6c13.2,6.7-9.2,66.3-38.3,86.8c-29.1,20.5-69.2,6.2-60.7-20.1
					C486.6,617.8,495.9,604.2,495.9,604.2z"/>
				<path class="st13" d="M474.3,660.7c-5.3-11.9-14.6-20.4-31.3-20.9c-16.6-0.5-25.5-8.9-16.3-35.7s34.1-39.4,49.2-35.3
					c15.1,4,42.1,21.4,43.9,27.8c1.8,6.4-9,22.4-15.7,29c-6.7,6.7-14.5,13.8-10.5,23.1C497.6,657.9,475.4,663.1,474.3,660.7z"/>
				<path class="st13" d="M483.3,663.7c10,5.6,23.9,18.1,22.9,29.3c-1,11.1-2.1,38.5,19.8,37.7c21.8-0.8,44.6-14.4,52.8-31.7
					c8.2-17.3-6.1-46.5-14.4-54.3c-8.2-7.8-16.8-11.8-30.8,1.1c-14,12.9-32,15-41.5,9.3"/>
				<path class="st14" d="M468.8,681.7c-6-6.9-18.8-17.1-24.7-20.3c-5.9-3.2-10.9-19.6,5.5-25.3c16.4-5.7,24.7-7,28.4-3.1
					c3.7,3.9-2.4,3-1.7,8.9c0.6,5.9-10.4,28.7,6,34s21.5-7.7,26.8-6.4c5.3,1.3-8.1,22.8-12,27.4c-3.9,4.5-7.8,13.7-12.3,10.5
					S472.9,686.4,468.8,681.7z"/>
				<path class="st15" d="M475.1,670.2c-7.8-11.7,0.7-8.4-3.8-16.9c-4.6-8.5-5.4-16.1,10.7-23c16.1-6.8,31.1-0.7,33.1,11.8
					s-12.4,4.8-13.7,14.1c-1.3,9.3,15.4,10.8,7.6,18C501.1,681.5,482.7,680.8,475.1,670.2"/>
				<path class="st15" d="M414.5,601.8c0,0,27.4-55.6-0.1-56"/>
				<path class="st16" d="M412.4,569.2c-2.2,5.1-14.3,12.9-32.2,2.1c-12.9-7.8-11.5-21.4-9.3-29.1c2.2-7.7,18.8-8.2,35.5,1.5
					C423.1,553.4,414.2,565,412.4,569.2z"/>
				<path class="st13" d="M421.7,559.5c-9,6.9-22.8,7.9-35.3-0.9c-12.4-8.8-14.8-15.8-14.4-18.6c0.4-2.8,16.3-16.3,33.9-11
					C423.6,534.4,428.7,554.1,421.7,559.5z"/>
			</g>
			<path class="st17" d="M514.3,876.4c-2,4.2,15.2,14.3,43.7,6.6c0,0-22.8,23.4-49.2,14.1"/>
			<path class="st18" d="M553.9,859.5c-8.9,4.1-12.9,7.2-17.8,8c-7.4,1.2-18.4,2-22.1,9c-3.1,5.9-5.1,20.7-5.1,20.7
				c11.1,1.9,19.6,3.1,33.9,1.1c22.1-3.1,34.7-14.7,34.7-14.7"/>
		</g>
		<g>
			<path class="st17" d="M504.4,841c-3.7,5.4,20.3,16.7,51.7,17.6c0,0-20.5,21.2-61.6,8.4"/>
			<path class="st18" d="M550.4,832.4c-4.7-1-17.2-0.2-22.9,0c-8.7,0.4-18.7,2.9-22.9,7.8c-7.2,8.3-10.1,26.8-10.1,26.8"/>
		</g>
		<path class="st18" d="M556.7,840.7c-7.9-14.5-19.3-20.1-57.9-42.2c0,0,82.4-20.8,96.6,30.9c13.4,48.8-37.2,64.4-37.2,64.4"/>
	</g>
</g>
<g id="Шарф" class="st0">
	<path class="st19" d="M806.9,811.9c15.8,41.9,21.4,72.8,31.9,139.2c0.4,2.6-53.1,6.1-54.3,0c-12.4-66,1.5-135.5,1.5-135.5
		L806.9,811.9z"/>
	<path class="st7" d="M806.9,811.9c15.8,41.9,21.4,72.8,31.9,139.2c0.4,2.6-52.8,3.1-53.9-3c-12.4-66,1.2-132.5,1.2-132.5
		L806.9,811.9z"/>
	<path class="st19" d="M771.4,816.3c-11.2,53.2-29.2,118.9-50.3,157.8c-1.4,2.5,57.6,16.9,58.8,9.9c13.5-75.3,11.1-168.4,11.1-168.4
		L771.4,816.3z"/>
	<path class="st19" d="M812,787.6c-1.4-6.9-44.4-6.6-46.7-0.3c-2.3,6.4-2.2,22.8-0.6,25.6c3.1,5.6,47.2,1.6,48-4.5
		C813.3,802.2,813.4,794.5,812,787.6z"/>
	<path class="st19" d="M813.1,763.3c-1.4-6.9-47-8.4-49.3-2c-2.3,6.4-1.4,20.4,1.4,22s46.4,8.2,48.6,2.5
		C817.1,777.3,814.5,770.2,813.1,763.3z"/>
	<path class="st20" d="M748,981.7c0,0,38.8-103.7,37.5-224.2l-23,3.7l2.7,22.1l-0.7,6.6l0.1,23l6.9,3.4l-19.6,72l-30.7,85.8
		L748,981.7z"/>
	<path class="st7" d="M771.4,816.3c-11.2,53.2-30.6,119.2-51.7,158c-1.4,2.5,59,14.5,60.3,7.5c13.5-75.3,11.1-166.2,11.1-166.2
		L771.4,816.3z"/>
	<path class="st7" d="M812,787.6c-1.4-6.9-44.4-6.6-46.7-0.3c-2.3,6.4-2.2,22.8-0.6,25.6c3.1,5.6,47.2,1.6,48-4.5
		C813.3,802.2,813.4,794.5,812,787.6z"/>
	<path class="st7" d="M813.1,763.3c-1.4-6.9-47-8.4-49.3-2c-2.3,6.4-1.4,20.4,1.4,22s46.4,8.2,48.6,2.5
		C817.1,777.3,814.5,770.2,813.1,763.3z"/>
</g>
<g id="Футболка">
	<polygon class="st21" points="861.1,875.5 852.2,830.5 815.3,835.4 820.6,872.9 	"/>
	<polygon class="st22" points="708.6,876.8 716.3,829.3 753,835.6 750,873 	"/>
	<polygon class="st23" points="861.1,875.5 852.2,830.5 815.3,835.4 820.6,872.9 	"/>
	<polygon class="st23" points="708.6,876.8 716.3,829.3 753,835.6 750,873 	"/>
	<path class="st21" d="M792.7,793.3c0,0,10.5,173.7,16.3,198.2l25.1-2.1l-1.6-35.8L821,892.4l-8-72.9l-1.4-20l3.7-6.9l-6.9-10.1
		L792.7,793.3z"/>
</g>
<g id="Штаны">
</g>
<g id="Брови" class="st0">
	<path class="st7" d="M725.8,357c0,0-51.9-21.7-86.3,16.3"/>
	<path class="st7" d="M815,351.8c0,0,48.8-27.8,87.7,5.6"/>
</g>
<rect x="-967.1" y="321.2" class="st24" width="127.6" height="153.6"/>
<image style="display:none;overflow:visible;" width="773" height="679" xlink:href="7659BBEDFB2B9F1E.jpg"  transform="matrix(1 0 0 1 -460.5213 180.1517)">
</image>
<g id="Кепка_1_1_" class="st0">
	<path class="st25" d="M961.2,387.3c0,0-106.3,9.2-141.6-1.1c0,0-39.9-42-82-51.6s-104.3-5.3-104.3-5.3s23.9-155.8,189.5-138.4
		C978.9,207.4,961.2,387.3,961.2,387.3z"/>
	<path class="st26" d="M737.6,334.6c-42.3-9.1-104.3-5.3-104.3-5.3s23.9-155.8,189.5-138.4c3.1,0.3,6.2,0.7,9.2,1.2l0,0
		c0,0,15.6,99.6-27.7,178.1C804.2,370.2,770.2,341.6,737.6,334.6z"/>
	<path class="st27" d="M961.1,351.6l0.1,35.7c0,0-115.7,8.8-141.6-1.1c0,0-8.5-10.8-17.2-15.8l9.1-16.7
		C811.6,353.7,878.8,360.8,961.1,351.6"/>
	
		<ellipse transform="matrix(0.1426 -0.9898 0.9898 0.1426 529.8187 985.8049)" class="st28" cx="833.9" cy="187.1" rx="10.5" ry="15.4"/>
	<path class="st27" d="M818.4,386.6c0,0-110.2,35.3-140.8,39.8s-55.9-3.2-71.4-14.7s-46.3-33.6-111.4-23l0,0
		c0.8-5.2,6.4-10.8,16.4-14.1c64.7-21.3,122-45.3,122-45.3S765.7,311.6,818.4,386.6z"/>
	<path class="st29" d="M494.9,388.7c0,0,37.5-7.8,72.5,2.7c0,0-20.2,8.2-46.5,10.1C502.1,402.8,493.7,396,494.9,388.7"/>
	<path class="st30" d="M494.9,388.7c-1.1,7.4,7.3,14.1,26,12.7c26.3-1.9,46.5-10.1,46.5-10.1"/>
	<path class="st30" d="M819.6,386.2c0,0-111.4,35.7-142,40.2s-55.9-3.2-71.4-14.7s-46.3-33.6-111.4-23l0,0
		c0.8-5.2,6.4-10.8,16.4-14.1c64.7-21.3,122-45.3,122-45.3"/>
	<path class="st31" d="M811.6,352.6c0,0,67.4,12.3,149.8,3.2"/>
	<path class="st31" d="M831.9,192.1c0,0,15.9,99.6-29.5,178.3"/>
	<path class="st31" d="M961.2,387.3c0,0-106.3,9.2-141.6-1.1c0,0-39.9-42-82-51.6s-104.3-5.3-104.3-5.3s23.9-155.8,189.5-138.4
		C978.9,207.4,961.2,387.3,961.2,387.3z"/>
</g>
<g id="Голова">
	<path class="st5" d="M586.3,285.7c0,0-62.3,218.4-11,349.9c44.8,114.9,137.5,129.3,190,108.9c52.4-20.5,110.9-93.9,66.1-208.8
		S663.3,398.5,586.3,285.7z"/>
	<path class="st9" d="M647.1,402.1c0,0-81.5,104.6-69.4,243.5l23.7,19.9l62.1-107.2L680,417.9l-26.5-32.7L647.1,402.1z"/>
	<path class="st9" d="M586.3,285.7c0,0,26.6,109.7,109.4,156.7l5.5-46.9C701.1,395.5,634.7,356.3,586.3,285.7z"/>
	<path class="st6" d="M586.3,285.7c0,0-62.3,218.4-11,349.9c44.8,114.9,137.5,129.3,190,108.9c52.4-20.5,110.9-93.9,66.1-208.8
		S663.3,398.5,586.3,285.7z"/>
	<path class="st32" d="M767.3,221.3c0,0,163.1,224.9,159.2,397.5C923.1,769.6,822.7,825,753.8,823.5
		C685,821.9,587.1,762,590.5,611.3C593.8,460.5,726,383.2,767.3,221.3z"/>
	<path class="st5" d="M926.2,618.9c-3.4,150.8-103.8,206.2-172.7,204.7c201.1-130.6,14-599,13.5-602.2
		C768.6,223.7,930,447.1,926.2,618.9z"/>
	<path class="st33" d="M743.6,335.1c0,0-52.6,86.8-91.4,146c-32.3,49.3-60.8,137.8-19,242.5c0,0,10-140.4,50.7-225.1
		C718.9,425.5,743.6,335.1,743.6,335.1z"/>
	<path class="st34" d="M799.9,317.1c-0.6-2.3,2.6-3.6,3.8-1.5c25.4,43.8,106.7,193.7,101.3,311.7c-3.4,74.3-49.5,140-100,164.8
		c-35,17.1-68.5,11.2-85.5,6.1c-2.2-0.7-1.8-4,0.6-4c16.8-0.2,47.4-2.5,68.5-15.7c51.8-32.2,70.2-114.9,65.7-172.6
		C846.2,502.2,811.4,361.6,799.9,317.1z"/>
	<path class="st6" d="M766.9,221.4c0,0,163.1,224.9,159.2,397.5c-3.4,150.8-103.8,206.2-172.7,204.7s-166.7-61.4-163.4-212.2
		C593.5,460.6,725.7,383.3,766.9,221.4z"/>
</g>
<g id="Рот" class="st0">
	<path class="st35" d="M721.2,597.6l136,8.9c0,0-14.1,62.9-72.2,59.1S721.2,597.6,721.2,597.6z"/>
	<path class="st3" d="M807.5,628.8l-11.1-0.7c-4.6-0.3-8.1-4.3-7.8-8.9l1.2-18.1l27.7,1.8l-1.2,18.1
		C816,625.7,812.1,629.1,807.5,628.8z"/>
	<path class="st3" d="M779.7,627l-11.1-0.7c-4.6-0.3-8.1-4.3-7.8-8.9l1.2-18.1l27.7,1.8l-1.2,18.1
		C788.3,623.8,784.3,627.3,779.7,627z"/>
	<path class="st36" d="M742.8,646.3c0,0,16.5,19.1,42.3,21.1c25.8,2,44.9-15.8,44.9-15.8s-16-15.8-42.7-6.8
		C787.3,644.8,764.3,633.1,742.8,646.3z"/>
	<path class="st37" d="M721.2,597.6c0,0,36.1,4.7,68,7c31.9,2.2,68,2,68,2s-14.1,62.9-72.2,59.1S721.2,597.6,721.2,597.6z"/>
</g>
<path class="st38" d="M791.2,572.8c0-15.3-21.9-38.7-70.1-24.3c-39.4,11.7-55.2,56.7-80.5,53.6c-19.5-2.4-10.4-39.3-31.6-54.1
	c-14.7-10.3-43.2-10.8-75,23.4c-32.2,34.8-32.4-0.7-34-2c-1.2-1-1.3,7.5,0,13.9c1.4,6.6,10.5,24.7,40.5-3
	c45.1-41.7,53.5-8.5,57.1,21c3.6,29.5,23,45.6,55.2,37.1c34.7-9.2,47-36.1,83.8-34.1C775.2,606.2,791.2,595,791.2,572.8z"/>
<g id="Глаза">
	<g id="Глаз_П">
		<circle class="st39" cx="847" cy="549.1" r="84.4"/>
		<circle class="st40" cx="844.8" cy="543.5" r="52.4"/>
		<circle class="st41" cx="865.5" cy="535" r="10.7"/>
		
			<ellipse transform="matrix(0.5884 -0.8086 0.8086 0.5884 -87.9301 884.6271)" class="st41" cx="824.9" cy="528.7" rx="21.3" ry="17.9"/>
		<path class="st42" d="M924.7,517.4c-55.6-39.6-108.9-37.2-161.3,15.9c6.7-36.3,36.9-65.2,75.5-68.7
			C877,461.3,911.3,483.7,924.7,517.4z"/>
	</g>
	<g id="Глаз_Л">
		<circle class="st39" cx="677.5" cy="537.1" r="84.4"/>
		<circle class="st40" cx="675.3" cy="531.5" r="52.4"/>
		<circle class="st41" cx="696" cy="523" r="10.7"/>
		
			<ellipse transform="matrix(0.5884 -0.8086 0.8086 0.5884 -148.01 742.6525)" class="st41" cx="655.4" cy="516.7" rx="21.3" ry="17.9"/>
		<path class="st42" d="M761.9,531.2c-45.6-55.2-86-69.9-158.6-33.6c17.4-32.6,55-51,92.8-42.6C733.3,463.3,759.3,495,761.9,531.2z"
			/>
	</g>
</g>
<g id="Брови_1_">
	<path class="st43" d="M740.3,434c0,0-36.5-23.6-78.1-40.2"/>
</g>
<g id="Брови_2_">
	<path class="st43" d="M807.3,438.7c0,0,37.1-17.2,83.8-26.3"/>
</g>
<path id="Рот_1_" class="st6" d="M789.9,706.7c0,0-33.2-20.2-79.9-6.3"/>
<g id="Усы">
	<path class="st44" d="M1032.5,669.1c-1.8,6.5-12.2,23.9-40.2-5.8c-42.1-44.7-52.8-12.2-58.4,17c-5.6,29.2-26.1,43.9-57.7,33.2
		c-34-11.5-46-32-82.8-34c-19.1-1-31.5-7.1-42.4-15.5c-8.6,6.7-30,11.1-51.4,9.9c-36.8-2-44.2,19.5-78.9,28.7
		c-32.2,8.5-51.6-7.6-55.2-37.1c-3.6-29.5-12-62.7-57.1-21c-30,27.7-39.1,9.6-40.5,3c-1.3-6.3-1.2-14.9,0-13.9
		c1.6,1.4,1.8,36.8,34,2c31.7-34.3,60.3-33.7,75-23.4c21.1,14.7,12,51.6,31.5,54.1c25.3,3.2,45.9-40.8,85-53.6
		c28.2-9.2,45.5,1.9,62.8,3.1c17.9,1.2,35.6-7.2,58,3.3c37.2,17.5,51.1,60.4,76.6,59c19.6-1.1,13.1-38.5,35.2-51.8
		c15.4-9.2,43.9-7.9,73.2,28.5c29.8,37,32.4,1.6,34.1,0.3C1034.8,654.3,1034.2,662.8,1032.5,669.1z"/>
	<path class="st45" d="M1032.5,669.1c-1.8,6.5-12.2,23.9-40.2-5.8c-42.1-44.7-52.8-12.2-58.4,17c-5.6,29.2-26.1,43.9-57.7,33.2
		c-34-11.5-46-32-82.8-34c-19.1-1-31.5-7.1-42.4-15.5c-8.6,6.7-30,11.1-51.4,9.9c-36.8-2-44.2,19.5-78.9,28.7
		c-32.2,8.5-51.6-7.6-55.2-37.1c-3.6-29.5-12-62.7-57.1-21c-30,27.7-39.1,9.6-40.5,3c-1.3-6.3-1.2-14.9,0-13.9
		c1.6,1.4,1.8,36.8,34,2c31.7-34.3,60.3-33.7,75-23.4c21.1,14.7,12,51.6,31.5,54.1c25.3,3.2,45.9-40.8,85-53.6
		c28.2-9.2,45.5,1.9,62.8,3.1c17.9,1.2,35.6-7.2,58,3.3c37.2,17.5,51.1,60.4,76.6,59c19.6-1.1,13.1-38.5,35.2-51.8
		c15.4-9.2,43.9-7.9,73.2,28.5c29.8,37,32.4,1.6,34.1,0.3C1034.8,654.3,1034.2,662.8,1032.5,669.1z"/>
</g>
<path class="st46" d="M792.4,872.4c0,0,1.2,0,2.2,8.4c66.2-5.2,84.1,19.5,84.1,19.5L852,928.9c-29.9-17.9-54.6-16.5-54.6-16.5
	c1.4,20,1.5,27.5,1.5,44.6c0,51.3-3.1,107.3-3.1,107.3h-70.5c0,0-6.3-60.3-7.5-112.4c-0.3-15.1,0-28.3,0.6-39.5l0,0
	c0,0-25.5-1.4-55.4,16.5l-26.7-28.5c0,0,19-24.7,85.1-19.5l0,0c1.1-7.3,1.9-11.1,1.9-11.1l19.5,11.1l12.7,22.6l17.4-20.6
	L792.4,872.4z"/>
<path class="st47" d="M775,881.8c0,0,3.5,126.3-3.3,182.4l22.7,1.2l4.4-32.2l0-83.7l-2.3-36.9l23.3,4.1l17.1,4.6l21.4-31.5
	l-33.4-9.2l-31.5,1.8l-1.9-13.2L775,881.8z"/>
<path class="st48" d="M792.9,868.2c0,0,0.7,4.2,1.7,12.6c66.2-5.2,84.1,19.5,84.1,19.5L852,928.9c-29.9-17.9-54.6-16.5-54.6-16.5
	c1.4,20,1.5,27.5,1.5,44.6c0,51.3-3.1,107.3-3.1,107.3h-70.5c0,0-6.3-60.3-7.5-112.4c-0.3-15.1,0-28.3,0.6-39.5l0,0
	c0,0-25.5-1.4-55.4,16.5l-26.7-28.5c0,0,19-24.7,85.1-19.5l0,0c1.1-7.3,1.9-11.1,1.9-11.1"/>
<path class="st49" d="M723.5,869.7"/>
<path class="st49" d="M723.5,869.7"/>
<g id="Воротник">
	<path class="st46" d="M771.8,882.4c3.5-1.8,27.1-19.2,27.1-19.2c0.3-2.6-0.7-17.6-5.9-15.8c-5,1.8-26.6,14.1-26.6,14.1L771.8,882.4
		l-14.3,17.9L744,881.8l3.3-20c-10.1-4.9-23.7-16.7-26.2-13.8c-2.2,2.5-3.2,18.3-3.2,18.3l23.5,14.2l15.9,18"/>
	<polygon class="st47" points="781.4,875.9 796.9,863 794.7,850.1 788.4,849.8 779.4,855.1 	"/>
	<path class="st48" d="M743.6,881.8c0,0-16.1-7.4-24.3-18.2c0,0-0.5-13.1,1.8-15.6c2.5-2.8,16.1,8.9,26.2,13.8L743.6,881.8l13.2,21
		l15-20.4l-5.4-20.9c0,0,21.5-12.7,26.6-14.1s5.9,15.8,5.9,15.8s-13,11.5-27.1,19.2"/>
	<g>
		<path class="st50" d="M743.6,880.8c0,0,11.2,11,28.2,0.6"/>
		<polyline class="st50" points="761.8,927.4 757.2,886 749.6,933.8 		"/>
		<circle class="st51" cx="757.2" cy="886" r="3.7"/>
		<g>
			<path class="st52" d="M761.2,927.8c0,0-3.7,8.4-4.6,21.1c-0.9,12.8-0.2,18.8-0.2,18.8s20.5,1.2,27.3-5.5
				C783.8,962.1,769.5,926.7,761.2,927.8z"/>
			<circle class="st51" cx="761.8" cy="927.3" r="3.2"/>
		</g>
		<g>
			<path class="st53" d="M749.5,933.3c0,0-8.3,5.3-9.5,17.6c-1.2,12.3-7.6,19.6-7.6,19.6s0.9,5.7,13.5,6.6c12.6,0.9,16-1.7,16.2-9.5
				s-4.7-18.8-6.2-24.5C754.4,937.4,751.1,934,749.5,933.3z"/>
			<circle class="st51" cx="749.6" cy="933.8" r="3.2"/>
		</g>
	</g>
</g>
<g id="Ботинок_1_">
	<path class="st54" d="M739.9,1234.5v70.8h-17l-1.6-5.3l-13.8,5.3h-31.6c0,0-0.7-17.3,9.9-21c10.6-3.7,17.8,1.1,20.3,1.5
		c2.4,0.4,5.3,0,5.3-10.1c0-10.1,0-41.2,0-41.2H739.9z"/>
	<path class="st48" d="M739.9,1234.5v70.8h-17l-1.6-5.3l-13.8,5.3h-31.6c0,0-0.7-17.3,9.9-21c10.6-3.7,17.8,1.1,20.3,1.5
		c2.4,0.4,5.3,0,5.3-10.1c0-10.1,0-41.2,0-41.2H739.9z"/>
</g>
<g id="Ботинок">
	<path class="st54" d="M790.3,1234.5v70.8h17l1.6-5.3l13.8,5.3h31.6c0,0,0.7-17.3-9.9-21c-10.6-3.7-17.8,1.1-20.3,1.5
		c-2.4,0.4-5.3,0-5.3-10.1c0-10.1,0-41.2,0-41.2H790.3z"/>
	<path class="st48" d="M790.3,1234.5v70.8h17l1.6-5.3l13.8,5.3h31.6c0,0,0.7-17.3-9.9-21c-10.6-3.7-17.8,1.1-20.3,1.5
		c-2.4,0.4-5.3,0-5.3-10.1c0-10.1,0-41.2,0-41.2H790.3z"/>
</g>
<path class="st53" d="M696.7,1230.7l-8.2-25.6l3.6-29.1l0.8-35.3l5.6-50.2l27.9-43.6h70.5c0,0,40.5,31.7,30.9,116.6l8.7,23.5
	c0,0,12.1,52.2-13.2,58.5c-50.3,12.7-56.8-22.5-56.8-22.5s-8.5,25.7-40.2,23.5C700.5,1244.7,696.9,1238.4,696.7,1230.7z"/>
<path class="st51" d="M788.4,1051c0,0,12.5,67.8,16,120.8c3.6,54.2-0.8,74.8-0.8,74.8l28.8-4.6l4.7-26.8l-0.6-28.3l-7.6-22.5
	l0.2-20.9l-2.3-33.5l-5.4-25.5l-12.3-29.8l-5-7.9L788.4,1051z"/>
<path class="st48" d="M825.6,1181.7c19.7-99.6-29.7-134.8-29.7-134.8h-70.5c0,0-48.7,43.6-24.3,132.3"/>
<path class="st48" d="M828.8,1160.7c0,0,15.1,30,7.7,71.3c-1.3,7.3-5,10.7-12.3,13.5c-0.8,0.3-4,0-4.9,0.1
	c-8.9,0.9-16.7,0.7-25.8,2.3c-0.8,0.1-4.2,0.7-5,0.5c-8.6-1.9-14-5.3-16.5-10.5c-6.8-14.1-10.6-61.2-6.2-94.3"/>
<path class="st48" d="M695.3,1161.3c-10.7,31.5-10.7,72.8,12.7,83.2c1.6,0.7,4.8,0.2,6.6,0.3c10.1,0.8,14.9,0.5,24.3,2.2
	c2.3,0.4,3.5,1.3,5.8,0.8c12.8-2.6,20.7-11.4,21.8-34.6"/>
<g id="Рука_2_2_">
	<path class="st6" d="M861.5,915.3c23.2,7.6,44.6,19.4,50.8,37.8c13.3,39.1-89.7,73.6-89.7,73.6"/>
	<path class="st5" d="M790.4,984.5c0,0,50.1-24.1,67,15.4c18.5,43.1-29.4,62.7-39,56.3c-15.6-10.4-22.1-34.4-18.3-44.6
		c1.8-4.7,13.2-9.9,24.8-10.8C824.9,1000.8,816.6,986.6,790.4,984.5z"/>
	<path class="st48" d="M790.2,986.5c0,0,50.1-24.1,67,15.4c18.5,43.1-29.4,62.7-39,56.3c-15.6-10.4-22.1-34.4-18.3-44.6
		c1.8-4.7,13.2-9.9,24.8-10.8C824.7,1002.8,816.4,988.6,790.2,986.5z"/>
</g>
<path class="st55" d="M716,1051.8c1.9,3.4,84,0.4,87.2-1.3s2.8-9.9-0.5-10.6c-5.3-1.1-85.1-4-86.8-4.4
	C712.2,1034.6,714,1048.4,716,1051.8z"/>
<path class="st56" d="M716,1053.7c1.9,3.4,83.1-2.4,86.3-4.1c3.2-1.7,3.5-12.5,0.6-14.2c-5.7-3.4-81.7-6.3-87,0
	C713.5,1038.4,714.1,1050.3,716,1053.7z"/>
<path class="st55" d="M803.6,1039.4c-1.9,3.4-83.5-1.1-86.7-2.8c-3.2-1.7-3.2-11.8-0.3-13.5c5.7-3.4,81.7-6.3,87,0
	C806,1026,805.5,1036,803.6,1039.4z"/>
<path class="st56" d="M803.6,1039.4c-1.9,3.4-84.4-2.3-87.6-4c-3.2-1.7-3.4-9.1-0.5-10.8c5.7-3.4,82.9-7.8,88.1-1.5
	C806,1026,805.5,1036,803.6,1039.4z"/>
<path class="st57" d="M773.8,1018.7c0,0,9,41.2,8.4,69.2c-0.6,28-4.4,49.4-4.4,49.4s13.7-2.6,25.9,0s15.2-5.6,15.2-5.6
	s-5.3-15.2-6.9-48.7c-1.6-33.5-13.8-61.4-20.3-64.1L773.8,1018.7z"/>
<path class="st58" d="M773.8,1018.7c0,0,9,41.2,8.4,69.2c-0.6,28-5.6,49.3-5.6,49.3s14.9-2.5,27.1,0.1s16.3-4.4,16.3-4.4
	s-5.3-16.8-6.9-50.3c-1.6-33.5-15-64.2-21.4-66.9L773.8,1018.7z"/>
<path class="st59" d="M783.5,1016.7c0,0,16.1-19.1,28.3,6.7c12.3,25.8,1.6,42.2,26.4,60.2c21.7,15.6,38.6,13.7,38.6,13.7
	s-7.4,6.7-20.8,13.4c-13.4,6.6-14.6,11.2-14.6,11.2s-37.2,4.9-38.9-50.2C801.4,1038.2,783.5,1016.7,783.5,1016.7z"/>
<path class="st58" d="M783.5,1016.7c0,0,18.5-17.9,30.8,7.9c12.3,25.8-0.7,45.2,25,59c25.8,13.8,42,15.1,42,15.1s-1.7,5.4-16.3,8.6
	c-17.4,3.8-19.8,13.3-19.8,13.3s-40,4.9-42.6-45.2C800.5,1033.1,783.5,1016.7,783.5,1016.7z"/>
<g id="Рука_1">
	<path class="st6" d="M657.6,913.1c-24.5,7.5-47.9,19.6-54.4,38.9c-13.3,39.1,89.7,73.6,89.7,73.6"/>
	<path class="st5" d="M726.3,987.2c0,0-51.7-20.4-65.7,20.2c-15.4,44.4,33.9,60.4,43,53.3c14.8-11.5,19.5-35.9,15-45.8
		c-2.1-4.6-13.9-8.9-25.5-9C693.1,1005.9,700.3,991.2,726.3,987.2z"/>
	<path class="st48" d="M726.3,987.2c0,0-51.7-20.4-65.7,20.2c-15.4,44.4,38,59,47.1,52c14.8-11.5,15.4-34.6,10.8-44.4
		c-2.1-4.6-13.9-8.9-25.5-9C693.1,1005.9,700.3,991.2,726.3,987.2z"/>
</g>
<g id="Рукав">
	<path class="st46" d="M628.1,895.9c0,0-19.7,1.9,5.7,21.8c28.5,22.3,31,33.8,43.5,19.9c0,0,10.2,2.9,6.8-9
		C678.8,909.9,632.2,845.7,628.1,895.9z"/>
	<path class="st48" d="M628.1,895.9c0,0-19.7,1.9,5.7,21.8c28.5,22.3,31,33.8,43.5,19.9c0,0,10.2,2.9,6.8-9
		C678.8,909.9,632.2,845.7,628.1,895.9z"/>
</g>
<g id="Рукав_2">
	<path class="st47" d="M891.5,895.9c0,0,19.7,1.9-5.7,21.8c-28.5,22.3-31,33.8-43.5,19.9c0,0-10.2,2.9-6.8-9
		C840.8,909.9,887.4,845.7,891.5,895.9z"/>
	<path class="st48" d="M891.5,895.9c0,0,19.7,1.9-5.7,21.8c-28.5,22.3-31,33.8-43.5,19.9c0,0-10.2,2.9-6.8-9
		C840.8,909.9,887.4,845.7,891.5,895.9z"/>
</g>
</svg>
