<svg width="47" height="30" viewBox="0 0 47 30" fill="none" xmlns="http://www.w3.org/2000/svg">
<g id="&#208;&#161;ooperation">
<path id="Vector" d="M36.5313 20.2838C35.6482 18.4426 32.4888 15.8869 29.4364 13.4175C27.7338 12.0413 26.1251 10.74 25.0995 9.71445C24.8426 9.4557 24.4582 9.37317 24.1189 9.49508C23.487 9.72386 23.097 9.90008 22.7895 10.0369C22.3208 10.2469 22.1633 10.3182 21.5314 10.3819C21.252 10.41 21.0008 10.56 20.8451 10.7925C19.5195 12.7744 18.147 12.6056 17.2301 12.2982C16.9376 12.2007 16.8851 12.075 16.857 11.955C16.6601 11.132 17.6483 9.21567 18.9289 7.93502C21.9758 4.88627 23.547 4.12312 26.8657 5.60627C30.6307 7.28999 34.4032 8.60817 34.4408 8.62127C34.9339 8.79187 35.4645 8.53312 35.6351 8.04374C35.8039 7.55437 35.5469 7.01999 35.0576 6.8494C35.02 6.8363 31.3226 5.5444 27.6326 3.89249C23.3332 1.97059 20.9744 3.23622 17.6051 6.60752C16.3226 7.89002 14.5807 10.485 15.0307 12.3882C15.2238 13.1982 15.7938 13.7982 16.6413 14.0775C18.7657 14.7788 20.7043 14.1075 22.1481 12.1913C22.7444 12.0995 23.0688 11.9645 23.5562 11.7451C23.7324 11.6663 23.9387 11.5745 24.2125 11.4638C25.285 12.4707 26.7325 13.6425 28.2569 14.8744C31.0131 17.1038 34.1388 19.6313 34.8419 21.0938C35.1888 21.8157 34.8156 22.2863 34.5625 22.5019C34.1912 22.8207 33.6831 22.9219 33.4075 22.7288C33.1038 22.5206 32.7082 22.5075 32.395 22.695C32.08 22.8825 31.9038 23.2369 31.9432 23.6006C32.0069 24.1969 31.4613 24.5382 31.225 24.6563C30.625 24.96 29.9988 24.9076 29.7644 24.69C29.5018 24.4463 29.125 24.375 28.7912 24.4988C28.4575 24.6244 28.225 24.9319 28.1912 25.2881C28.135 25.9031 27.6793 26.4937 27.0849 26.7244C26.7981 26.8331 26.3818 26.8987 26.0087 26.5574C25.7762 26.3475 25.4537 26.2668 25.1519 26.3399C24.8463 26.4149 24.6006 26.6362 24.4937 26.9305C24.4581 27.0243 24.3775 27.2493 23.5 27.2493C22.8756 27.2493 21.7524 26.8274 21.2031 26.4637C20.545 26.0305 16.4181 22.9518 12.8538 19.9668C12.3532 19.5449 11.4869 18.6411 10.7219 17.8424C10.0431 17.1336 9.42254 16.4905 9.10376 16.2205C8.70438 15.883 8.11376 15.9337 7.78188 16.3312C7.44816 16.7268 7.49685 17.3194 7.89254 17.6531C8.18319 17.8987 8.74569 18.493 9.36629 19.1399C10.2026 20.0136 11.0669 20.9174 11.6482 21.4049C15.1395 24.3281 19.3357 27.4837 20.1719 28.033C20.8619 28.4868 22.3488 29.1243 23.5001 29.1243C24.4244 29.1243 25.1351 28.9124 25.6281 28.4981C26.2881 28.755 27.0382 28.7568 27.76 28.4756C28.6132 28.1455 29.3144 27.4799 29.7119 26.6737C30.4506 26.8312 31.2963 26.7206 32.065 26.3344C32.8169 25.9557 33.3606 25.3763 33.6306 24.6994C34.3769 24.7387 35.1456 24.4744 35.7812 23.9287C36.8576 23.0082 37.1538 21.5757 36.5313 20.2838Z" fill="#FCB326" stroke="#FCB326" stroke-width="0.18"/>
<path id="Vector_2" d="M19.7499 4.74927H11.3124C10.7949 4.74927 10.3749 5.1693 10.3749 5.6868C10.3749 6.2043 10.7949 6.62432 11.3124 6.62432H19.7499C20.2674 6.62432 20.6874 6.2043 20.6874 5.6868C20.6874 5.1693 20.2674 4.74927 19.7499 4.74927Z" fill="#FCB326" stroke="#FCB326" stroke-width="0.18"/>
<path id="Vector_3" d="M39.278 18.2888C38.9874 17.8595 38.4062 17.7414 37.9768 18.0339L35.2356 19.8751C34.8062 20.1638 34.6918 20.747 34.9806 21.1763C35.1625 21.4445 35.4587 21.5907 35.7606 21.5907C35.9388 21.5907 36.1206 21.5401 36.2819 21.4314L39.0231 19.5902C39.4524 19.3013 39.5667 18.7183 39.278 18.2888Z" fill="#FCB326" stroke="#FCB326" stroke-width="0.18"/>
<path id="Vector_4" d="M33.4582 22.7625C32.787 22.2338 29.7851 19.1607 27.9288 17.2257C27.5707 16.8507 26.9764 16.8376 26.6032 17.1976C26.2281 17.5557 26.2169 18.1501 26.575 18.5232C27.0569 19.0257 31.3075 23.4564 32.2957 24.2364C32.4663 24.3714 32.6725 24.437 32.875 24.437C33.1507 24.437 33.4263 24.3133 33.6138 24.0789C33.9345 23.6738 33.8651 23.0832 33.4582 22.7625Z" fill="#FCB326" stroke="#FCB326" stroke-width="0.18"/>
<path id="Vector_5" d="M29.7119 24.6431C28.5887 23.745 25.7669 20.7469 25.1294 20.0531C24.7768 19.6706 24.1862 19.6481 23.8037 19.9969C23.423 20.3475 23.3969 20.9419 23.7475 21.3225C23.7812 21.3581 27.1487 24.9938 28.5399 26.1076C28.7125 26.2444 28.9206 26.3119 29.1249 26.3119C29.3987 26.3119 29.6724 26.19 29.858 25.9613C30.1807 25.5562 30.115 24.9656 29.7119 24.6431Z" fill="#FCB326" stroke="#FCB326" stroke-width="0.18"/>
<path id="Vector_6" d="M25.9805 26.5309C24.6436 25.4041 21.908 22.4922 21.3736 21.9203C21.0193 21.5416 20.4248 21.5209 20.048 21.8753C19.6693 22.2297 19.6504 22.8221 20.003 23.2009C20.7718 24.024 23.3892 26.7991 24.7711 27.9653C24.9473 28.1134 25.1611 28.1865 25.3748 28.1865C25.6411 28.1865 25.9074 28.0722 26.093 27.8528C26.4267 27.4553 26.3761 26.8646 25.9805 26.5309Z" fill="#FCB326" stroke="#FCB326" stroke-width="0.18"/>
<path id="Vector_7" d="M11.9575 3.1313C10.3506 1.60877 3.925 1.11562 1.99378 1.00127C1.72756 0.988179 1.4819 1.07625 1.29443 1.2544C1.10687 1.43062 1 1.67812 1 1.93687V18.8119C1 19.3294 1.42003 19.7494 1.93753 19.7494H7.56252C7.96752 19.7494 8.32752 19.4888 8.45312 19.1025C8.58997 18.6825 11.8206 8.76755 12.2462 3.89252C12.2706 3.60749 12.1656 3.32624 11.9575 3.1313ZM6.87812 17.8744H2.87497V2.9419C5.88812 3.17999 9.13937 3.69749 10.3206 4.27124C9.82377 8.37749 7.57562 15.6731 6.87812 17.8744Z" fill="#FCB326" stroke="#FCB326" stroke-width="0.18"/>
<path id="Vector_8" d="M45.1541 3C37.7928 3 33.7091 4.88437 33.5385 4.96312C33.2948 5.07747 33.1128 5.28937 33.0378 5.54628C32.9629 5.80318 33.0003 6.07881 33.1409 6.3075C34.2997 8.17315 37.9278 18.5344 38.6253 21.0619C38.7378 21.4687 39.1072 21.75 39.5291 21.75H45.1541C45.6716 21.75 46.0916 21.3299 46.0916 20.8124V3.93744C46.0916 3.4181 45.6716 3 45.1541 3ZM44.2167 19.875H40.2304C39.3416 16.98 36.7166 9.43122 35.2523 6.31128C36.6828 5.82568 39.756 4.99125 44.2167 4.88631V19.875Z" fill="#FCB326" stroke="#FCB326" stroke-width="0.18"/>
</g>
</svg>
