<svg width="37" height="37" viewBox="0 0 37 37" fill="none" xmlns="http://www.w3.org/2000/svg">
<g id="Cash">
<path id="Vector" d="M5.41895 22.5444H23.0949" stroke="#FCB326" stroke-width="1.81731" stroke-miterlimit="10" stroke-linecap="round" stroke-linejoin="round"/>
<path id="Vector_2" d="M5.41895 26.8535H23.0949" stroke="#FCB326" stroke-width="1.81731" stroke-miterlimit="10" stroke-linecap="round" stroke-linejoin="round"/>
<path id="Vector_3" d="M5.41895 31.1626H14.257" stroke="#FCB326" stroke-width="1.81731" stroke-miterlimit="10" stroke-linecap="round" stroke-linejoin="round"/>
<path id="Vector_4" d="M27.5137 19.6722C31.988 19.6722 35.6152 16.1353 35.6152 11.7724C35.6152 7.40942 31.988 3.87256 27.5137 3.87256C23.0394 3.87256 19.4122 7.40942 19.4122 11.7724C19.4122 16.1353 23.0394 19.6722 27.5137 19.6722Z" stroke="#FCB326" stroke-width="1.81731" stroke-miterlimit="10" stroke-linecap="round" stroke-linejoin="round"/>
<path id="Vector_5" d="M27.5139 8.18174V7.10449" stroke="#FCB326" stroke-width="1.81731" stroke-miterlimit="10" stroke-linecap="round" stroke-linejoin="round"/>
<path id="Vector_6" d="M27.5139 15.363V16.4402" stroke="#FCB326" stroke-width="1.81731" stroke-miterlimit="10" stroke-linecap="round" stroke-linejoin="round"/>
<path id="Vector_7" d="M29.318 9.61797C29.1474 8.79843 28.4046 8.18164 27.5139 8.18164C26.4969 8.18164 25.6726 8.98542 25.6726 9.97705C25.6726 10.9686 26.4969 11.7725 27.5139 11.7725" stroke="#FCB326" stroke-width="1.81731" stroke-miterlimit="10" stroke-linecap="round" stroke-linejoin="round"/>
<path id="Vector_8" d="M27.5138 11.7727C28.5307 11.7727 29.3551 12.5765 29.3551 13.5681C29.3551 14.5597 28.5307 15.3635 27.5138 15.3635C26.6231 15.3635 25.8803 14.7467 25.7097 13.9272" stroke="#FCB326" stroke-width="1.81731" stroke-miterlimit="10" stroke-linecap="round" stroke-linejoin="round"/>
<path id="Vector_9" d="M27.5139 3.87265V1H1V35.6154H27.5139V19.6722" stroke="#FCB326" stroke-width="1.81731" stroke-miterlimit="10" stroke-linecap="round" stroke-linejoin="round"/>
</g>
</svg>
