<svg width="41" height="35" viewBox="0 0 41 35" fill="none" xmlns="http://www.w3.org/2000/svg">
<g id="Tractor">
<path id="Vector" d="M30.8562 20.0754C28.5662 20.0754 26.7087 21.9317 26.7087 24.2217C26.7087 26.5117 28.5662 28.368 30.8562 28.368C33.1462 28.368 35.0037 26.5117 35.0037 24.2217C35.0037 21.9317 33.1462 20.0754 30.8562 20.0754ZM30.8562 26.7097C29.4834 26.7097 28.3682 25.5933 28.3682 24.2217C28.3682 22.8501 29.4834 21.7337 30.8562 21.7337C32.229 21.7337 33.3442 22.8501 33.3442 24.2217C33.3442 25.5933 32.229 26.7097 30.8562 26.7097Z" fill="#FCB326" stroke="#FCB326" stroke-width="0.259615"/>
<path id="Vector_2" d="M37.861 17.1527L36.0412 2.65951H36.6608C37.12 2.65951 37.4918 2.28778 37.4918 1.82975C37.4918 1.37172 37.1201 1 36.6608 1H35.8322H20.075H18.4167H18.4161C17.9581 1 17.587 1.37172 17.587 1.82975C17.587 2.28778 17.9581 2.65951 18.4161 2.65951H19.5599L15.9427 14.305C15.9427 14.305 15.8188 14.3026 15.5928 14.3026C14.8609 14.3026 13.0599 14.327 10.9521 14.5383V12.6261H12.6109V5.97603H10.9521V4.31777H10.9436C10.9436 2.94376 9.82957 1.82975 8.45557 1.82975C7.99754 1.82975 7.62582 2.20148 7.62582 2.65951C7.62582 3.11753 7.99754 3.48801 8.45557 3.48801C8.91297 3.48801 9.2847 3.86098 9.2847 4.31777H9.29317V5.97603H7.63491V12.6261H9.29317V14.7375C5.84727 15.2296 2.12738 16.2707 1 18.4683V26.7099C1 30.8319 4.34203 34.1739 8.46404 34.1739C12.306 34.1739 15.4695 31.2717 15.8819 27.5396H21.4702C22.8382 31.4041 26.5227 34.1739 30.8562 34.1739C36.3522 34.1739 40.8082 29.7178 40.8082 24.2219C40.8082 21.4568 39.6808 18.9555 37.861 17.1527ZM9.29317 7.63553H10.9521V10.9678H9.29317V7.63553ZM14.2091 27.5518C14.07 28.5152 13.6922 29.4202 13.106 30.1977C12.7804 29.911 12.2835 29.9219 11.9719 30.2329C11.6615 30.5439 11.6494 31.0383 11.9348 31.3652C11.1573 31.9471 10.2522 32.3213 9.29006 32.4574C9.26029 32.0261 8.90256 31.6859 8.46396 31.6859C8.02537 31.6859 7.66764 32.0261 7.63787 32.4574C6.6757 32.3213 5.77061 31.9471 4.99311 31.3652C5.27861 31.0384 5.26648 30.5439 4.95602 30.2329C4.6444 29.9219 4.14757 29.911 3.82195 30.1977C3.23579 29.4202 2.858 28.5151 2.71883 27.5518C3.15555 27.5287 3.5024 27.1678 3.50302 26.7244C3.50302 26.281 3.15377 25.919 2.71517 25.8983C2.84945 24.9313 3.22359 24.0214 3.80858 23.2402C4.1342 23.5402 4.64012 23.533 4.95602 23.2171C5.27246 22.9 5.27853 22.3923 4.97725 22.0679C5.75778 21.4787 6.6677 21.1008 7.63592 20.9636C7.65108 21.4082 8.01558 21.7642 8.46381 21.7642C8.91204 21.7642 9.27653 21.4082 9.2917 20.9636C10.2599 21.1009 11.1698 21.4787 11.9504 22.0679C11.6491 22.3923 11.6552 22.9 11.9716 23.2171C12.2875 23.533 12.7934 23.5402 13.119 23.2402C13.704 24.0214 14.0782 24.93 14.2124 25.8971C13.7739 25.9189 13.4246 26.281 13.4246 26.7244C13.4246 27.1678 13.7723 27.5287 14.2091 27.5518ZM21.0426 25.8801H15.8819C15.4694 22.1481 12.306 19.2459 8.46404 19.2459C6.12912 19.2459 4.04564 20.3186 2.67646 21.9963L2.66129 18.9373C3.44852 17.9204 5.56418 17.0542 8.57274 16.5307C11.6141 16.0022 14.715 15.9609 15.5927 15.9609C15.7962 15.9609 15.9104 15.9633 15.9111 15.9633L17.1575 15.9864L17.5268 14.797L21.2964 2.65951H34.3695L36.0071 15.7046C35.4483 15.3656 34.853 15.0813 34.2286 14.8566L32.9056 4.31777H22.5174L18.3967 17.5876H23.4383C21.8626 19.3479 20.9041 21.6731 20.9041 24.2219C20.9041 24.7868 20.9521 25.3408 21.0426 25.8801ZM32.5011 14.4059C31.9653 14.3172 31.4162 14.2698 30.8562 14.2698C28.8213 14.2698 26.9298 14.8809 25.3541 15.9281H20.6489L23.7395 5.97603H31.4417L32.5011 14.4059ZM38.4198 27.6332C38.0286 27.4303 37.5427 27.5688 37.3203 27.9539C37.098 28.339 37.2195 28.8274 37.5901 29.0655C37.3301 29.4251 37.0397 29.7665 36.7202 30.086C36.4007 30.4067 36.0581 30.6959 35.6985 30.9558C35.4603 30.5865 34.9732 30.4638 34.5881 30.6861C34.2018 30.9084 34.0633 31.3944 34.2674 31.7856C33.4558 32.1525 32.5848 32.3858 31.6834 32.4744C31.6628 32.0358 31.3007 31.6859 30.8561 31.6859C30.4114 31.6859 30.0494 32.0358 30.0288 32.4744C29.1273 32.3857 28.2563 32.1524 27.4448 31.7856C27.6476 31.3944 27.5104 30.9085 27.1241 30.6861C26.739 30.4638 26.2506 30.5865 26.0137 30.9558C25.6541 30.6959 25.3116 30.4067 24.9908 30.086C24.6725 29.7665 24.3822 29.4251 24.1222 29.0655C24.4928 28.8274 24.6142 28.339 24.3919 27.9539C24.1696 27.5688 23.6837 27.4303 23.2925 27.6332C22.9256 26.8216 22.6924 25.9506 22.6025 25.0492C23.0423 25.0285 23.3921 24.6665 23.3921 24.2219C23.3921 23.7772 23.0423 23.4165 22.6025 23.3945C22.6924 22.4931 22.9256 21.6233 23.2925 20.8106C23.6837 21.0134 24.1696 20.8762 24.392 20.4899C24.6143 20.1048 24.4928 19.6164 24.1223 19.3783C24.381 19.0187 24.6726 18.6773 24.9909 18.3578C25.3116 18.0383 25.653 17.7479 26.0126 17.4879C26.2508 17.8585 26.7391 17.9799 27.1242 17.7576C27.5106 17.5353 27.6478 17.0494 27.4449 16.6582C28.2565 16.2913 29.1275 16.058 30.0289 15.9694C30.0496 16.408 30.4116 16.7578 30.8562 16.7578C31.3009 16.7578 31.6629 16.408 31.6836 15.9694C32.585 16.0581 33.4561 16.2913 34.2675 16.6582C34.0635 17.0493 34.2019 17.5353 34.5883 17.7576C34.9734 17.9799 35.4617 17.8585 35.6986 17.4879C36.0582 17.7479 36.4008 18.0382 36.7203 18.3578C37.0399 18.6773 37.3302 19.0187 37.5902 19.3783C37.2197 19.6164 37.0982 20.1048 37.3205 20.4899C37.5428 20.8762 38.0287 21.0134 38.42 20.8106C38.7869 21.6233 39.0201 22.4932 39.11 23.3945C38.6701 23.4165 38.3202 23.7772 38.3202 24.2219C38.3202 24.6665 38.6701 25.0285 39.1098 25.0492C39.02 25.9506 38.7867 26.8216 38.4198 27.6332Z" fill="#FCB326" stroke="#FCB326" stroke-width="0.259615"/>
<path id="Vector_3" d="M8.46415 24.2217C7.09014 24.2217 5.97614 25.3357 5.97614 26.7097C5.97614 28.0837 7.09014 29.1977 8.46415 29.1977C9.83816 29.1977 10.9522 28.0837 10.9522 26.7097C10.9522 25.3357 9.83816 24.2217 8.46415 24.2217ZM8.46415 27.5394C8.00674 27.5394 7.63502 27.1677 7.63502 26.7097C7.63502 26.2529 8.00674 25.8799 8.46415 25.8799C8.92156 25.8799 9.29328 26.2529 9.29328 26.7097C9.29328 27.1677 8.92156 27.5394 8.46415 27.5394Z" fill="#FCB326" stroke="#FCB326" stroke-width="0.259615"/>
</g>
</svg>
