<svg width="36" height="36" viewBox="0 0 36 36" fill="none" xmlns="http://www.w3.org/2000/svg">
<g id="Global">
<path id="Vector" d="M18 0C8.06231 0 0 8.12897 0 18C0 27.9112 8.08938 36 18 36C27.9112 36 36 27.9106 36 18C36 8.08875 27.9106 0 18 0ZM18 2.10937C19.7556 2.10937 21.4453 2.39618 23.0255 2.9243C22.7294 3.36171 22.5442 3.93996 22.5442 4.68605C22.5442 5.82532 23.0534 6.84366 23.5458 7.82852C23.9463 8.62966 24.3247 9.38637 24.3247 10.0277C24.3247 10.3985 24.2364 10.4839 23.933 10.5851C23.3539 10.7782 22.2784 10.7554 21.5422 10.753C19.8042 10.7471 17.8331 10.7408 15.7309 12.843C15.4406 13.1335 15.2833 13.1483 14.2776 12.6454C13.3574 12.1853 11.8171 11.4152 10.3894 12.843C9.55427 13.6781 9.22444 14.8541 9.45534 16.0469C8.42337 15.6462 6.99637 15.4607 6.82179 15.0179C6.741 14.8131 6.61486 13.9215 8.38322 11.0507C9.03902 9.98592 9.82687 8.4259 9.09998 7.17623C8.74744 6.57014 8.15681 6.24755 7.50466 6.07943C10.306 3.61005 13.9808 2.10937 18 2.10937ZM18 33.8906C9.23787 33.8906 2.10937 26.7621 2.10937 18C2.10937 14.2237 3.43434 10.7514 5.64265 8.02188C6.85821 8.01148 7.1865 8.15934 7.27432 8.23795C7.28557 8.30707 7.3177 8.75848 6.58716 9.94444C4.86337 12.7429 4.34672 14.4917 4.85944 15.7918C5.55202 17.5481 7.72608 17.5507 8.90641 18.1047C9.62058 18.4399 13.2249 20.1002 13.6415 20.7188V22.4916C13.6415 23.8131 14.8892 24.5268 15.8918 25.1004C16.298 25.3327 17.1432 25.8162 17.2025 26.0527C17.2025 30.26 17.6075 32.5763 18.1296 33.8891C18.0863 33.8894 18.0433 33.8906 18 33.8906ZM20.7436 32.7502C20.7502 32.9625 20.5286 33.3946 20.3373 33.5878C20.0683 33.2147 19.312 31.6658 19.312 26.0526C19.312 24.6265 17.9964 23.874 16.9393 23.2694C16.5672 23.0565 15.8776 22.6661 15.7439 22.4508V20.711C15.7439 20.427 15.698 20.1734 15.6069 19.9454C17.3597 19.7843 18.2136 19.1668 18.8612 18.6986C19.3159 18.3697 19.5441 18.2047 20.0378 18.2047C20.052 18.2047 20.0592 18.2057 20.0591 18.2055C20.17 18.2598 20.4057 18.6539 20.5467 18.8896C21.7427 20.8879 22.9093 21.602 25.1966 22.103C25.5033 22.1702 25.9593 22.2701 26.0946 22.3601C26.0992 22.3817 26.1053 22.4231 26.1053 22.4915C26.1053 24.6679 24.43 26.2447 22.9519 27.6358C21.7667 28.7513 20.7431 29.7148 20.7431 30.9371C20.743 31.1079 20.7408 32.6572 20.7436 32.7502ZM22.8207 33.1423C22.8448 32.9897 22.8491 32.8391 22.8452 32.6935C22.8436 32.5506 22.8454 30.9479 22.8454 30.9374C22.8455 30.936 22.8613 30.7837 23.1813 30.3967C23.4789 30.0364 23.9252 29.6165 24.3977 29.1717C26.0085 27.6556 28.2146 25.5792 28.2146 22.4914C28.2146 21.4341 27.6813 20.8716 27.2339 20.5859C26.7662 20.2873 26.223 20.1683 25.6479 20.0423C23.9396 19.6681 23.2515 19.3018 22.3569 17.8066C21.9248 17.0842 21.3331 16.095 20.0378 16.095C18.8614 16.095 18.1759 16.5907 17.6252 16.989C16.9947 17.445 16.3991 17.8755 14.6962 17.8755C13.0049 17.8755 11.9988 16.8955 11.6511 16.0563C11.5197 15.7391 11.279 14.9363 11.8809 14.3344C12.1714 14.044 12.3285 14.0291 13.3343 14.532C14.2545 14.9921 15.7947 15.7622 17.2225 14.3344C18.704 12.8528 19.9538 12.857 21.5354 12.8621C22.5475 12.8654 23.6997 12.8862 24.6001 12.586C25.7828 12.1918 26.4341 11.2831 26.4341 10.0275C26.4341 8.8882 25.9249 7.86987 25.4325 6.885C25.032 6.08386 24.6536 5.32716 24.6536 4.68584C24.6536 4.19098 24.7611 3.91409 25.307 3.89187C30.4022 6.5418 33.8906 11.8709 33.8906 18C33.8906 25.0822 29.2332 31.0962 22.8207 33.1423Z" fill="#FCB326"/>
</g>
</svg>
