<svg width="37" height="37" viewBox="0 0 37 37" fill="none" xmlns="http://www.w3.org/2000/svg">
<path id="Vector" d="M24.4901 12.1251L1 35.6154M11.8838 24.7315L12.2885 24.4049C12.6811 24.0643 13.0367 23.6827 13.3491 23.2662C15.7767 20.0293 15.1207 15.4371 11.8838 13.0094L11.4792 13.336C11.0866 13.6765 10.731 14.0581 10.4186 14.4746C7.99091 17.7116 8.6469 22.3038 11.8838 24.7315ZM11.8838 24.7315L12.2104 25.1361C12.5509 25.5287 12.9326 25.8842 13.3491 26.1968C16.5861 28.6243 21.178 27.9683 23.6057 24.7315L23.2791 24.3267C22.9388 23.9341 22.557 23.5786 22.1404 23.2662C18.9036 20.8385 14.3116 21.4945 11.8838 24.7315ZM17.7448 18.8704L18.1494 18.5438C18.542 18.2034 18.8976 17.8218 19.2099 17.4052C21.6378 14.1683 20.9817 9.57615 17.7448 7.14843L17.3402 7.47499C16.9476 7.81549 16.5921 8.19712 16.2797 8.61364C13.8519 11.8506 14.5078 16.4427 17.7448 18.8704ZM17.7448 18.8704L18.0714 19.2752C18.412 19.6677 18.7936 20.0233 19.2101 20.3357C22.447 22.7634 27.039 22.1074 29.4667 18.8704L29.1401 18.4658C28.7997 18.0732 28.4179 17.7176 28.0015 17.4052C24.7645 14.9776 20.1725 15.6335 17.7448 18.8704ZM23.6057 13.0094L24.0105 12.6829C24.4029 12.3424 24.7587 11.9607 25.0711 11.5442C27.4987 8.30727 26.8428 3.71515 23.6057 1.28742L23.2011 1.61399C22.8086 1.95449 22.453 2.33611 22.1406 2.75263C19.7129 5.98958 20.3689 10.5817 23.6057 13.0094ZM23.6057 13.0094L23.9323 13.4141C24.2729 13.8067 24.6545 14.1623 25.0711 14.4747C28.3079 16.9025 32.9001 16.2463 35.3276 13.0094L35.0012 12.6048C34.6606 12.2122 34.279 11.8566 33.8624 11.5442C30.6254 9.11649 26.0334 9.77252 23.6057 13.0094ZM5.88413 30.7312L6.28879 30.4046C6.68135 30.064 7.03695 29.6825 7.34934 29.2659C9.77709 26.029 9.12108 21.4369 5.88413 19.0092L5.47947 19.3358C5.08691 19.6761 4.7313 20.0579 4.41892 20.4743C1.99119 23.7113 2.64718 28.3035 5.88413 30.7312ZM5.88413 30.7312L6.21071 31.1358C6.55122 31.5284 6.93288 31.884 7.34942 32.1965C10.5863 34.624 15.1783 33.9681 17.606 30.7312L17.2794 30.3264C16.939 29.9339 16.5573 29.5783 16.1407 29.2659C12.9039 26.8382 8.31179 27.4942 5.88413 30.7312ZM29.3265 9.36236C28.8109 9.436 28.2897 9.4544 27.7713 9.41758L27.2542 9.36228C26.682 5.35679 29.4653 1.64584 33.4707 1.07363C34.1578 0.975456 34.8556 0.975456 35.5428 1.07363C36.1151 5.0792 33.3319 8.79015 29.3265 9.36236Z" stroke="#FCB326" stroke-width="1.90385"/>
</svg>
