<svg width="38" height="38" viewBox="0 0 38 38" fill="none" xmlns="http://www.w3.org/2000/svg">
<path id="Mision" d="M22.1538 10.5034V4.7041C22.1673 4.52537 22.2478 4.35834 22.3792 4.23646C22.5107 4.11458 22.6833 4.04686 22.8625 4.04686C23.0418 4.04686 23.2144 4.11458 23.3458 4.23646C23.4772 4.35834 23.5578 4.52537 23.5713 4.7041V6.0772C23.5703 6.13462 23.5831 6.19143 23.6086 6.24289C23.6341 6.29435 23.6715 6.33895 23.7178 6.37296C23.764 6.40697 23.8178 6.4294 23.8745 6.43837C23.9312 6.44734 23.9893 6.44259 24.0438 6.42451L27.2746 5.00699C27.3411 4.9831 27.3987 4.93924 27.4394 4.88142C27.48 4.82359 27.5019 4.75461 27.5019 4.68391C27.5019 4.61321 27.48 4.54423 27.4394 4.4864C27.3987 4.42858 27.3411 4.38472 27.2746 4.36083L22.598 2.34157C21.7418 1.99829 22.2991 0.726161 23.1553 1.05328L30.0208 4.06198C30.1492 4.1138 30.2592 4.20281 30.3366 4.31758C30.4141 4.43236 30.4554 4.56766 30.4554 4.70612C30.4554 4.84458 30.4141 4.97988 30.3366 5.09466C30.2592 5.20943 30.1492 5.29845 30.0208 5.35027L23.7571 8.05607C23.6999 8.08033 23.6523 8.12275 23.6216 8.17677C23.591 8.23078 23.5789 8.29339 23.5874 8.35492V10.6326C23.5817 10.6787 23.5863 10.7254 23.601 10.7695C23.6157 10.8135 23.64 10.8537 23.6722 10.8871L27.8763 15.5718C27.9208 15.6566 27.9611 15.6969 28.0056 15.7858L37.2942 36.3136C37.3536 36.4253 37.3817 36.551 37.3756 36.6774C37.3695 36.8038 37.3293 36.9262 37.2594 37.0317C37.1895 37.1371 37.0924 37.2218 36.9784 37.2766C36.8644 37.3315 36.7377 37.3546 36.6117 37.3434H1.68655C1.50446 37.3434 1.32984 37.2711 1.20109 37.1423C1.07233 37.0136 1 36.8389 1 36.6569C1 36.4748 1.07233 36.3002 1.20109 36.1714C1.32984 36.0426 1.50446 35.9703 1.68655 35.9703H3.01926C3.11132 35.9683 3.20038 35.9372 3.27369 35.8815L9.19819 30.3002C9.25026 30.2408 9.28021 30.1652 9.283 30.0862L10.4946 23.043C10.4988 22.9608 10.52 22.8803 10.5569 22.8066C10.5937 22.7329 10.6454 22.6677 10.7086 22.6149L14.4846 19.3074C14.5605 19.2294 14.6532 19.1699 14.7557 19.1334C14.8582 19.0968 14.9677 19.0844 15.0757 19.0968C15.1838 19.1093 15.2876 19.1465 15.379 19.2054C15.4705 19.2643 15.5472 19.3434 15.6033 19.4366L20.7685 28.4587C20.8186 28.5364 20.8517 28.6237 20.8658 28.7151C20.8798 28.8064 20.8745 28.8997 20.8501 28.9888C20.8257 29.078 20.7829 29.161 20.7243 29.2325C20.6657 29.3039 20.5927 29.3623 20.5101 29.4037C20.432 29.4512 20.3451 29.4823 20.2546 29.495C20.1641 29.5077 20.0719 29.5018 19.9838 29.4776C19.8957 29.4534 19.8134 29.4114 19.7421 29.3542C19.6708 29.2971 19.6119 29.226 19.5691 29.1452L14.9894 21.2378C14.9629 21.1961 14.9278 21.1605 14.8865 21.1332C14.8453 21.106 14.7987 21.0878 14.7499 21.0798C14.7011 21.0718 14.6512 21.0742 14.6034 21.0868C14.5556 21.0994 14.511 21.122 14.4725 21.153L11.8838 23.4307C11.8299 23.4949 11.7863 23.5671 11.7546 23.6448L10.6117 30.6879C10.5902 30.8436 10.5144 30.9866 10.3976 31.0918C8.93973 32.5537 7.35259 33.9712 5.85026 35.3888C5.79977 35.4384 5.76544 35.5021 5.75178 35.5716C5.73812 35.641 5.74576 35.713 5.7737 35.778C5.80164 35.8431 5.84857 35.8982 5.90835 35.9361C5.96814 35.974 6.03798 35.993 6.10873 35.9905H22.497C22.5601 35.9919 22.6224 35.9758 22.677 35.9441C22.7316 35.9124 22.7764 35.8663 22.8064 35.8107C22.8365 35.7552 22.8507 35.6925 22.8474 35.6294C22.8441 35.5664 22.8235 35.5055 22.7878 35.4534L21.2532 32.1903C21.1889 32.0587 21.1668 31.9105 21.19 31.766C21.2131 31.6214 21.2803 31.4875 21.3824 31.3826L26.1882 26.4394C26.2304 26.4036 26.261 26.3561 26.2762 26.3029C26.2913 26.2497 26.2902 26.1932 26.273 26.1406L22.6707 13.6373C22.6516 13.5708 22.6134 13.5113 22.561 13.4662C22.5085 13.421 22.444 13.3922 22.3754 13.3832C22.3068 13.3742 22.237 13.3854 22.1747 13.4155C22.1124 13.4456 22.0602 13.4932 22.0245 13.5525L18.2081 20.1636C18.1604 20.2431 18.0975 20.3125 18.0229 20.3677C17.9484 20.4229 17.8637 20.4629 17.7737 20.4854C17.6837 20.5079 17.5901 20.5125 17.4984 20.4988C17.4066 20.4852 17.3184 20.4536 17.2389 20.4059C17.1593 20.3581 17.09 20.2952 17.0347 20.2207C16.9795 20.1461 16.9395 20.0614 16.917 19.9714C16.8945 19.8814 16.8899 19.7879 16.9036 19.6961C16.9172 19.6043 16.9488 19.5162 16.9966 19.4366L22.1093 10.6892C22.1538 10.6488 22.1538 10.6044 22.1538 10.5196V10.5034ZM24.8071 35.9703H34.9841C35.0449 35.9686 35.1044 35.9523 35.1576 35.9228C35.2108 35.8934 35.2561 35.8515 35.2898 35.8008C35.3234 35.7502 35.3444 35.6922 35.351 35.6317C35.3575 35.5712 35.3494 35.5101 35.3274 35.4534L26.7859 16.4723L26.7011 16.3875L25.114 14.5823C25.0582 14.5269 24.9858 14.4913 24.9079 14.481C24.83 14.4707 24.7508 14.4862 24.6826 14.5251C24.6143 14.564 24.5607 14.6243 24.5299 14.6966C24.4991 14.769 24.4929 14.8494 24.5123 14.9256L27.7754 26.3061C27.8139 26.4253 27.818 26.553 27.7873 26.6744C27.7566 26.7958 27.6923 26.9061 27.6017 26.9927L22.8847 31.8389C22.8269 31.8866 22.7867 31.9523 22.7706 32.0255C22.7545 32.0987 22.7634 32.1752 22.7959 32.2428L24.4719 35.7643C24.5081 35.8247 24.558 35.8755 24.6177 35.9127C24.6774 35.9499 24.7451 35.9724 24.8151 35.9784L24.8071 35.9703Z" fill="#FCB326" stroke="#FCB326" stroke-width="0.519231"/>
</svg>
