<svg width="12" height="18" viewBox="0 0 12 18" fill="none" xmlns="http://www.w3.org/2000/svg">
<path id="Arrow 2" d="M5.2 17L5.2 17.8L6.8 17.8L6.8 17L5.2 17ZM6.56568 0.434315C6.25327 0.121895 5.74673 0.121895 5.43431 0.434315L0.343145 5.52548C0.0307259 5.8379 0.030726 6.34443 0.343145 6.65685C0.655565 6.96927 1.1621 6.96927 1.47452 6.65685L6 2.13137L10.5255 6.65685C10.8379 6.96927 11.3444 6.96927 11.6569 6.65685C11.9693 6.34443 11.9693 5.8379 11.6569 5.52548L6.56568 0.434315ZM6.8 17L6.8 1L5.2 1L5.2 17L6.8 17Z" fill="#777777"/>
</svg>
