<svg width="20" height="20" viewBox="0 0 20 20" fill="none" xmlns="http://www.w3.org/2000/svg">
<path fill-rule="evenodd" clip-rule="evenodd" d="M16.9819 6.37363C16.9819 7.40104 18.097 7.69833 18.7508 7.69833C19.0323 7.69833 19.3023 7.75918 19.5013 7.86751C19.7004 7.97584 19.8122 8.12276 19.8122 8.27595C19.8122 8.42915 19.7004 8.57607 19.5013 8.6844C19.3023 8.79272 19.0323 8.85358 18.7508 8.85358H1.06137C0.779875 8.85358 0.509912 8.79272 0.310867 8.6844C0.111822 8.57607 0 8.42915 0 8.27595C0 8.12276 0.111822 7.97584 0.310867 7.86751C0.509912 7.75918 0.779875 7.69833 1.06137 7.69833C1.71517 7.69833 2.83031 7.40104 2.83031 6.37363V4.54448C2.83031 2.43422 5.52901 0.381714 9.90609 0.381714C14.2832 0.381714 16.9819 2.43422 16.9819 4.54448V6.37363ZM4.95304 4.54448C4.95304 2.90402 6.98804 1.53697 9.90609 1.53697C12.8241 1.53697 14.8591 2.90479 14.8591 4.54448V6.37363C14.8591 6.89504 15.0643 7.33789 15.4068 7.69833H4.40538C4.74785 7.33789 4.95304 6.89504 4.95304 6.37363V4.54448Z" fill="#ADADAD"/>
<path d="M8.34683 9.52517C8.20495 9.39281 7.97228 9.29654 7.69998 9.25754C7.42769 9.21855 7.13809 9.24001 6.89488 9.31722C6.65167 9.39444 6.47478 9.52106 6.40312 9.66925C6.33147 9.81744 6.37091 9.97506 6.51278 10.1074C6.85937 10.4296 7.3551 10.6967 7.95054 10.8821C8.54598 11.0675 9.22032 11.1648 9.90633 11.1641C11.354 11.1641 12.6206 10.7405 13.2999 10.1074C13.4417 9.97506 13.4812 9.81744 13.4095 9.66925C13.3379 9.52106 13.161 9.39444 12.9178 9.31722C12.6746 9.24001 12.385 9.21855 12.1127 9.25754C11.8404 9.29654 11.6077 9.39281 11.4658 9.52517C11.1559 9.81321 10.5743 10.0088 9.90633 10.0088C9.23696 10.0088 8.65674 9.81321 8.34683 9.52517Z" fill="#ADADAD"/>
</svg>
