<svg width="25" height="25" viewBox="0 0 25 25" fill="none" xmlns="http://www.w3.org/2000/svg">
<path d="M10.0923 4.94226C7.30328 5.80048 6.09747 8.80114 6.98357 11.6808L7.97206 14.8931C8.25383 15.8088 8.29702 16.6469 8.16448 17.3806L18.6793 14.145C18.1572 13.6127 17.7218 12.8954 17.44 11.9797L16.608 9.27589C16.5252 9.00685 16.5527 8.71594 16.6844 8.46716C16.8161 8.21837 17.0413 8.0321 17.3103 7.94931C17.5794 7.86652 17.8703 7.894 18.119 8.0257C18.3678 8.15741 18.5541 8.38254 18.6369 8.65158L19.4689 11.3554C20.0241 13.1597 21.2506 13.3538 21.8755 13.1615C22.1445 13.0787 22.4354 13.1062 22.6842 13.2379C22.933 13.3696 23.1193 13.5948 23.202 13.8638C23.2848 14.1328 23.2573 14.4238 23.1256 14.6725C22.9939 14.9213 22.7688 15.1076 22.4998 15.1904L5.59267 20.3929C5.32363 20.4757 5.03272 20.4482 4.78394 20.3165C4.53516 20.1848 4.34888 19.9597 4.26609 19.6907C4.18331 19.4216 4.21078 19.1307 4.34249 18.8819C4.47419 18.6331 4.69932 18.4469 4.96837 18.3641C5.59325 18.1718 6.49842 17.3217 5.9432 15.5174L4.95472 12.3051C3.81432 8.59903 5.28448 4.20073 9.46797 2.91341C9.73849 2.83017 10.0068 2.76389 10.2761 2.71509C10.5529 2.66406 10.8387 2.7251 11.0706 2.88479C11.3024 3.04447 11.4613 3.28971 11.5124 3.56656C11.5634 3.84341 11.5023 4.1292 11.3427 4.36104C11.183 4.59289 10.9377 4.75181 10.6609 4.80283C10.4688 4.83831 10.279 4.88486 10.0923 4.94226Z" fill="#ADADAD"/>
<path d="M11.006 20.0182C10.7989 19.8274 10.5245 19.7268 10.2432 19.7384C9.96184 19.75 9.69664 19.8729 9.50591 20.08C9.31518 20.2871 9.21455 20.5615 9.22614 20.8429C9.23774 21.1242 9.36062 21.3894 9.56774 21.5801C10.0731 22.044 10.6913 22.3673 11.3606 22.5178C12.0299 22.6683 12.7269 22.6407 13.3822 22.4378C14.7659 22.012 15.7475 20.8956 16.0547 19.584C16.1187 19.3098 16.0713 19.0214 15.9227 18.7823C15.7741 18.5431 15.5366 18.3727 15.2624 18.3086C14.9883 18.2446 14.6999 18.292 14.4607 18.4406C14.2215 18.5892 14.0511 18.8267 13.9871 19.1009C13.8465 19.6979 13.3963 20.2125 12.7579 20.4089C12.1182 20.6058 11.4579 20.4329 11.006 20.0182Z" fill="#ADADAD"/>
<path d="M18.2118 5.27794C18.563 4.61452 18.6363 3.83876 18.4155 3.12131C18.1948 2.40387 17.698 1.8035 17.0346 1.4523C16.3712 1.1011 15.5954 1.02782 14.878 1.24859C14.1605 1.46935 13.5602 1.96608 13.209 2.6295C12.8578 3.29292 12.7845 4.06868 13.0053 4.78613C13.226 5.50357 13.7228 6.10394 14.3862 6.45514C15.0496 6.80634 15.8254 6.87962 16.5428 6.65885C17.2602 6.43809 17.8606 5.94136 18.2118 5.27794Z" fill="#F74343"/>
</svg>
