<svg width="37" height="26" viewBox="0 0 37 26" fill="none" xmlns="http://www.w3.org/2000/svg">
<g id="Burger">
<path id="Line 12" d="M20 2L35 2" stroke="#101010" stroke-width="3" stroke-linecap="round"/>
<path id="Line 12_2" d="M0.93934 11.9393C0.353553 12.5251 0.353553 13.4749 0.93934 14.0607L10.4853 23.6066C11.0711 24.1924 12.0208 24.1924 12.6066 23.6066C13.1924 23.0208 13.1924 22.0711 12.6066 21.4853L4.12132 13L12.6066 4.51472C13.1924 3.92893 13.1924 2.97919 12.6066 2.3934C12.0208 1.80761 11.0711 1.80761 10.4853 2.3934L0.93934 11.9393ZM35 14.5C35.8284 14.5 36.5 13.8284 36.5 13C36.5 12.1716 35.8284 11.5 35 11.5V14.5ZM2 14.5H35V11.5H2V14.5Z" fill="#101010"/>
<path id="Line 12_3" d="M20 24H35" stroke="#101010" stroke-width="3" stroke-linecap="round"/>
</g>
</svg>
