<svg width="20" height="22" viewBox="0 0 20 22" fill="none" xmlns="http://www.w3.org/2000/svg">
<g id="Sort">
<path id="Arrow 5" d="M15.65 7C15.65 6.64101 15.359 6.35 15 6.35C14.641 6.35 14.35 6.64101 14.35 7L15.65 7ZM14.5404 21.4596C14.7942 21.7135 15.2058 21.7135 15.4596 21.4596L19.5962 17.323C19.85 17.0692 19.85 16.6576 19.5962 16.4038C19.3424 16.15 18.9308 16.15 18.677 16.4038L15 20.0808L11.323 16.4038C11.0692 16.15 10.6576 16.15 10.4038 16.4038C10.15 16.6576 10.15 17.0692 10.4038 17.323L14.5404 21.4596ZM14.35 7L14.35 21L15.65 21L15.65 7L14.35 7Z" fill="#858585"/>
<path id="Arrow 6" d="M4.35 15C4.35 15.359 4.64101 15.65 5 15.65C5.35899 15.65 5.65 15.359 5.65 15L4.35 15ZM5.45962 0.54038C5.20578 0.28654 4.79422 0.28654 4.54038 0.54038L0.403807 4.67696C0.149966 4.9308 0.149966 5.34235 0.403807 5.59619C0.657647 5.85003 1.0692 5.85003 1.32305 5.59619L5 1.91924L8.67696 5.59619C8.9308 5.85003 9.34235 5.85003 9.59619 5.59619C9.85004 5.34235 9.85004 4.9308 9.59619 4.67696L5.45962 0.54038ZM5.65 15L5.65 1L4.35 1L4.35 15L5.65 15Z" fill="#858585"/>
</g>
</svg>
