<svg width="20" height="20" viewBox="0 0 20 20" fill="none" xmlns="http://www.w3.org/2000/svg">
<g id="Frame 16">
<g id="Group">
<path id="Vector" d="M1.03467 5.56581C1.65342 4.27641 2.52766 3.18661 3.62944 2.28043C5.12243 1.04692 6.83497 0.304416 8.7551 0.0768744C11.0106 -0.190586 13.1303 0.236552 15.0903 1.41019C15.5773 1.7016 16.0324 2.03293 16.4676 2.39221C16.5753 2.48003 16.5634 2.53193 16.4715 2.61975C15.5813 3.50596 14.6911 4.39218 13.8089 5.28637C13.7051 5.39016 13.6492 5.38218 13.5375 5.29835C10.9507 3.30636 7.17828 3.84528 5.25017 6.47997C4.91085 6.94303 4.63541 7.44203 4.4438 7.98493C4.42783 8.03284 4.39589 8.07675 4.37194 8.12465C3.85698 7.73344 3.33802 7.34223 2.82705 6.94702C2.22826 6.48795 1.62947 6.02888 1.03467 5.56581Z" fill="#E94335"/>
<path id="Vector_2" d="M4.37203 11.8691C4.54368 12.2483 4.68739 12.6435 4.90296 12.9988C5.80913 14.4838 7.10252 15.4379 8.80708 15.7772C10.344 16.0846 11.821 15.877 13.1982 15.1066C13.2461 15.0826 13.294 15.0587 13.338 15.0347C13.3619 15.0587 13.3819 15.0866 13.4058 15.1066C14.4357 15.905 15.4697 16.7034 16.4996 17.5018C16.0046 17.9928 15.4417 18.388 14.8429 18.7313C13.1064 19.7213 11.2262 20.1205 9.2462 19.9688C6.77917 19.7772 4.65146 18.8031 2.895 17.0467C2.12456 16.2762 1.48984 15.406 1.03076 14.412C1.4579 14.0846 1.88504 13.7613 2.31218 13.434C2.99879 12.911 3.68541 12.3921 4.37203 11.8691Z" fill="#34A853"/>
<path id="Vector_3" d="M16.5037 17.5018C15.4738 16.7034 14.4399 15.905 13.41 15.1066C13.386 15.0866 13.3621 15.0587 13.3421 15.0347C13.6974 14.7593 14.0607 14.4918 14.3521 14.1405C14.8391 13.5577 15.1624 12.899 15.3301 12.1605C15.3501 12.0687 15.3341 12.0368 15.2423 12.0408C15.1944 12.0448 15.1505 12.0408 15.1026 12.0408C13.4738 12.0408 11.8411 12.0368 10.2124 12.0448C10.0328 12.0448 9.99285 11.9969 9.99685 11.8252C10.0048 10.6675 10.0048 9.50987 9.99685 8.3522C9.99685 8.2045 10.0368 8.16458 10.1845 8.16458C13.1704 8.16857 16.1564 8.16857 19.1464 8.16458C19.2741 8.16458 19.326 8.19652 19.358 8.33224C19.6015 9.43003 19.5855 10.5318 19.4378 11.6416C19.3181 12.5278 19.1025 13.3861 18.7712 14.2164C18.2801 15.4419 17.5576 16.5118 16.6075 17.4299C16.5716 17.4578 16.5357 17.4778 16.5037 17.5018Z" fill="#4285F3"/>
<path id="Vector_4" d="M4.37209 11.8691C3.68548 12.392 2.99886 12.911 2.31225 13.4339C1.88511 13.7573 1.45797 14.0846 1.03083 14.412C0.699496 13.7972 0.483931 13.1465 0.308285 12.4759C-0.027039 11.1785 -0.0789344 9.86114 0.104695 8.53981C0.248406 7.5019 0.547802 6.50391 1.03083 5.56979C1.62962 6.02887 2.22442 6.49193 2.82321 6.95101C3.33818 7.34621 3.85314 7.73742 4.3681 8.12863C4.28028 8.55577 4.15653 8.97493 4.11661 9.41404C4.04475 10.2124 4.1206 10.9909 4.34814 11.7573C4.36411 11.7893 4.3681 11.8292 4.37209 11.8691Z" fill="#FABB06"/>
</g>
</g>
</svg>
