<svg width="33" height="50" viewBox="0 0 33 50" fill="none" xmlns="http://www.w3.org/2000/svg">
<g id="Logo 1" clip-path="url(#clip0_279_2205)">
<path id="Vector" d="M0.0829493 9.99539C0 9.6636 0 8.91705 0 4.81106C0 2.15668 0 0 0.0414747 0C0.0829493 0 0.663595 0.373272 1.41014 0.870968C4.18894 2.69585 6.30415 4.06452 9.08295 5.80645C10.7005 6.96774 12.6912 7.79724 13.977 9.29032C15.47 11.7373 14.8065 11.6129 15.3871 16.1751C15.6774 19.5346 15.7604 20.4055 15.8848 21.7742C15.9677 22.5207 15.8433 22.1475 15.2212 21.8157C12.0277 19.7419 8.8341 17.6267 5.59908 15.5115C3.48387 13.9355 0.456221 12.7742 0.0829493 9.99539Z" fill="#FCB326"/>
<path id="Vector_2" d="M0.0829493 23.8479C-0.0414747 24.0138 0.0414747 15.6359 0 13.7696C4.31336 16.7558 9.3318 19.4931 13.5207 22.6037C15.6774 24.0968 15.3456 32.765 15.8848 35.5023C15.9263 35.9585 15.9263 35.9585 15.8433 35.917C13.2719 34.2166 10.8664 32.6406 8.17051 30.8986C5.35023 28.7419 0.788018 27.3733 0.0829493 23.8479Z" fill="#FCB326"/>
<path id="Vector_3" d="M0.0414747 35.5853C0 35.3364 0 33.8018 0 31.3548C0 28.4516 0 27.5392 0.0414747 27.5392C2.48848 29.1152 4.97696 30.7327 7.46544 32.3088C9.3318 33.7189 13.8525 35.6682 14.6406 37.9493C15.0968 38.6129 15.8018 48.3594 15.8848 49.7281C12.7742 47.6544 9.4977 45.5392 6.3871 43.5069C3.35945 41.765 0.373272 39.318 0.0414747 35.5853Z" fill="#FCB326"/>
<path id="Vector_4" fill-rule="evenodd" clip-rule="evenodd" d="M32.8478 0.0829468C32.8893 0.0829468 32.8893 2.23963 32.8893 4.85253C32.8893 9.49769 32.8893 9.62212 32.7649 9.99539C32.599 10.7005 32.3916 11.1982 31.9768 11.7788C30.4008 13.7281 27.9953 14.6406 25.963 16.1336C23.4745 17.7512 19.9077 20.1152 17.5022 21.8157C16.6312 22.4793 17.046 22.0645 17.046 21.0276C17.1704 19.8249 17.6681 14.2258 17.751 13.0645C17.6681 9.66359 19.8248 8.12903 22.5206 6.63594C25.4653 4.81106 29.9446 1.86636 32.8478 0.0829468ZM32.8478 13.8111C32.7648 15.6774 33.4284 24.1797 32.0598 25.424C31.0644 27.0415 28.0782 28.3687 26.5437 29.4885C23.7649 31.2304 19.6589 34.0092 17.0045 35.8341C17.0045 34.2581 17.2533 32.9723 17.4607 30.235C17.9584 26.7097 17.3778 25.6313 18.7879 23.2258C19.8248 21.8157 21.6496 21.0276 23.1013 20.0323C26.046 18.2074 29.9031 15.7189 32.8478 13.8111ZM32.8063 27.4977C32.6404 31.3548 33.387 35.5853 31.9354 38.3641C31.1473 41.4747 19.3271 47.8617 16.963 49.6866C17.0045 48.1935 17.2533 46.3687 17.4607 43.7972C17.9584 40.2304 17.3778 39.235 18.7879 36.9124C20.2395 35.2535 20.6957 35.4194 23.4331 33.553C27.2902 31.0645 29.4469 29.6959 32.8063 27.4977Z" fill="#F67F23"/>
</g>
<defs>
<clipPath id="clip0_279_2205">
<rect width="33" height="50" fill="white"/>
</clipPath>
</defs>
</svg>
