<svg width="180" height="50" viewBox="0 0 180 50" fill="none" xmlns="http://www.w3.org/2000/svg">
<g clip-path="url(#clip0_140_3184)">
<path fill-rule="evenodd" clip-rule="evenodd" d="M63.871 42.3042C64.8249 42.3456 65.4885 42.636 66.1521 43.5069V42.3456H66.6912C66.6498 43.7972 66.7742 48.4839 66.4009 48.6498C65.4885 50.2673 62.8341 50.0599 61.5899 48.9401L61.8802 48.5254C62.7097 49.3134 64.4516 49.6037 65.447 48.9401C66.318 48.0277 65.9862 48.318 66.1521 46.4101C65.1567 48.0277 62.3779 47.9032 61.5484 46.1613C60.5945 44.4608 61.8802 42.1797 63.871 42.3042ZM63.0829 42.9263C60.3456 44.129 62.212 48.0691 64.9493 46.8249C67.3963 45.6221 65.6129 41.8894 63.0829 42.9263ZM111.857 42.3042C113.848 42.2212 114.097 44.6682 114.014 42.3456H114.512C114.346 44.5438 114.968 48.1106 113.889 49.1475C112.645 50.1843 110.696 49.9355 109.41 48.9401C109.452 48.8572 109.659 48.5668 109.7 48.5254C109.866 48.6083 110.364 48.9816 110.571 49.0231C112.645 49.7696 114.263 48.9816 113.972 46.3272C112.977 47.9447 110.281 47.8618 109.369 46.2028C108.415 44.4608 109.783 42.0968 111.857 42.3042ZM110.737 43.0507C108.249 44.5438 110.406 48.1521 112.977 46.7834C115.382 45.2903 113.184 41.7235 110.737 43.0507ZM177.304 42.3042C179.461 42.2212 180.705 44.8341 179.585 46.576C178.631 48.1521 176.184 48.2765 175.147 46.6175L175.106 49.7696H174.608L174.567 42.3456H175.106L175.147 43.5484C175.562 42.7604 176.433 42.2627 177.304 42.3042ZM176.35 43.0092C173.903 44.2949 175.604 48.318 178.258 47.1152C180.747 45.8295 179.005 41.7235 176.35 43.0092Z" fill="#F67F23"/>
<path d="M0.0829493 9.99539C0 9.6636 0 8.91705 0 4.81106C0 2.15668 0 0 0.0414747 0C0.0829493 0 0.663595 0.373272 1.41014 0.870968C4.18894 2.69585 6.30415 4.06452 9.08295 5.80645C10.7005 6.96774 12.6912 7.79724 13.977 9.29032C15.47 11.7373 14.8065 11.6129 15.3871 16.1751C15.6774 19.5346 15.7604 20.4055 15.8848 21.7742C15.9677 22.5207 15.8433 22.1475 15.2212 21.8157C12.0277 19.7419 8.8341 17.6267 5.59908 15.5115C3.48387 13.9355 0.456221 12.7742 0.0829493 9.99539Z" fill="#FCB326"/>
<path d="M149.516 34.341C149.516 27.9954 149.516 15.1797 149.516 8.8341L156.608 8.87558C159.387 13.3134 162.042 18 164.903 22.3134C167.433 18.1244 170.378 13.0645 172.908 8.8341H179.959C180 17.3364 180.042 25.0507 180.042 34.341H172.244C172.161 30.9401 172.244 25.9631 172.12 22.8525C170.337 25.8802 168.429 29.0737 166.687 32.0599H162.871C160.963 29.0323 159.263 26.2949 157.355 23.2258L157.313 34.3825H149.516V34.341Z" fill="#FCB326"/>
<path d="M0.0829493 23.8479C-0.0414747 24.0138 0.0414747 15.6359 0 13.7696C4.31336 16.7558 9.3318 19.4931 13.5207 22.6037C15.6774 24.0968 15.3456 32.765 15.8848 35.5023C15.9263 35.9585 15.9263 35.9585 15.8433 35.917C13.2719 34.2166 10.8664 32.6406 8.17051 30.8986C5.35023 28.7419 0.788018 27.3733 0.0829493 23.8479Z" fill="#FCB326"/>
<path d="M0.0414747 35.5853C0 35.3364 0 33.8018 0 31.3548C0 28.4516 0 27.5392 0.0414747 27.5392C2.48848 29.1152 4.97696 30.7327 7.46544 32.3088C9.3318 33.7189 13.8525 35.6682 14.6406 37.9493C15.0968 38.6129 15.8018 48.3594 15.8848 49.7281C12.7742 47.6544 9.4977 45.5392 6.3871 43.5069C3.35945 41.765 0.373272 39.318 0.0414747 35.5853Z" fill="#FCB326"/>
<path fill-rule="evenodd" clip-rule="evenodd" d="M32.848 0.0829468C32.8895 0.0829468 32.8895 2.23963 32.8895 4.85253C32.8895 9.49769 32.8895 9.62212 32.7651 9.99539C32.5992 10.7005 32.3918 11.1982 31.9771 11.7788C30.401 13.7281 27.9955 14.6405 25.9633 16.1336C23.4748 17.7511 19.908 20.1152 17.5024 21.8157C16.6315 22.4793 17.0462 22.0645 17.0462 21.0276C17.1706 19.8249 17.6683 14.2258 17.7513 13.0645C17.6683 9.66359 19.825 8.12903 22.5209 6.63594C25.4656 4.81106 29.9448 1.86636 32.848 0.0829468ZM32.848 13.8111C32.7651 15.6774 33.4287 24.1797 32.06 25.424C31.0646 27.0415 28.0785 28.3687 26.5439 29.4885C23.7651 31.2304 19.6591 34.0092 17.0047 35.8341C17.0047 34.2581 17.2536 32.9723 17.4609 30.235C17.9586 26.7097 17.378 25.6313 18.7881 23.2258C19.825 21.8157 21.6499 21.0276 23.1015 20.0323C26.0462 18.2074 29.9033 15.7189 32.848 13.8111ZM32.8066 27.4977C32.6407 31.3548 33.3872 35.5853 31.9356 38.3641C31.1476 41.4747 19.3273 47.8617 16.9633 49.6866C17.0047 48.1935 17.2536 46.3687 17.4609 43.7972C17.9586 40.2304 17.378 39.235 18.7881 36.9124C20.2397 35.2535 20.696 35.4194 23.4333 33.553C27.2904 31.0645 29.4471 29.6959 32.8066 27.4977ZM47.3642 42.3041C50.143 42.7604 49.3135 43.2166 49.4794 47.7788H48.9402V46.9493C48.0278 48.235 45.166 48.1521 45.0831 46.2857C45.5393 44.2949 46.3688 44.8756 48.9402 44.7511C49.1891 42.553 46.825 42.3871 45.4978 43.4654C44.6683 42.7189 46.8665 42.2627 47.3642 42.3041ZM46.2029 45.2903C43.8388 47.6129 49.5623 48.4424 48.9402 45.1659C46.6591 45.1659 46.8665 45.1244 46.2029 45.2903ZM81.5808 42.2627V42.8018C79.2582 43.1336 79.6315 43.5484 79.5485 47.7373H79.0093V42.3041H79.507C79.4656 44.5438 79.5485 42.1797 81.5808 42.2627ZM95.3089 42.3041C98.8342 42.3456 98.6683 47.9447 95.143 47.7788C91.5762 47.8203 91.7421 42.0553 95.3089 42.3041ZM94.2305 43.0092C91.3688 44.6267 94.2305 49.023 96.719 46.659C98.378 44.917 96.4702 41.8479 94.2305 43.0092ZM129.443 42.2627V42.7604C126.83 43.1751 127.535 44.0876 127.369 47.6959H126.83V42.2627H127.369V43.341C127.825 42.6359 128.572 42.2627 129.443 42.2627ZM143.046 42.3041C146.613 42.2212 146.613 47.8203 143.088 47.8203C139.562 47.8203 139.521 42.2627 143.046 42.3041ZM142.092 43.0092C139.645 44.3364 141.429 48.3594 144.083 47.0737C146.53 45.7465 144.705 41.682 142.092 43.0092ZM157.521 42.3456H158.06C158.184 43.7558 157.728 45.9539 158.475 46.7834C159.304 47.6129 160.963 47.4055 161.502 46.3272C161.917 45.2074 161.668 45.9124 161.751 42.3041H162.332V47.7373H161.751V46.6175C161.046 48.1106 158.433 48.1935 157.728 46.659C157.355 45.9954 157.562 43.5484 157.521 42.3456Z" fill="#F67F23"/>
<path fill-rule="evenodd" clip-rule="evenodd" d="M146.945 8.79263C146.779 13.9355 147.401 26.3779 146.489 28.8249C145.701 31.1889 143.834 33.1383 141.47 33.9263C141.097 34.6313 121.894 34.2166 120.982 34.341C120.982 31.0645 120.94 16.7143 121.023 16.2581C121.272 13.2719 123.263 10.4101 126.083 9.29032C130.313 8.29493 127.41 9.04148 146.945 8.79263ZM130.313 15.8848C129.111 16.341 128.281 17.5023 127.991 18.7465L127.949 27.4977C136.576 27.4562 136.908 27.4562 137.157 27.4147C140.682 25.7558 139.77 24.5945 139.936 19.8249V15.6359C130.562 15.7189 132.055 15.4286 130.313 15.8848ZM41.2673 8.8341H66.0277V15.47H57.9401V34.2581H49.3549V15.5115H41.2673V8.8341ZM68.5991 8.8341H89.295V15.3456H77.06V18.2903H87.8019V24.5115H77.06V27.8295H89.3779V34.341H68.5991V8.8341ZM91.9079 8.8341H100.369V18C103.23 14.8479 105.719 12.1106 108.664 8.8341H118.078C114.885 12.3594 111.069 16.5069 107.917 20.0737C109.825 22.6452 118.12 33.6774 118.535 34.2995C118.535 34.341 116.295 34.341 108.664 34.341C106.631 31.6452 104.889 29.3641 102.982 26.7926C102.567 26.2949 102.401 25.7972 102.235 26.0046C101.696 26.6682 101.571 26.7512 100.452 27.9954V34.2995H91.9908V8.8341H91.9079Z" fill="#FCB326"/>
</g>
<defs>
<clipPath id="clip0_140_3184">
<rect width="180" height="49.7696" fill="white"/>
</clipPath>
</defs>
</svg>
